<svg xmlns="http://www.w3.org/2000/svg" version="1.1" viewBox="26.624 94.208 483.328 307.2" style="max-height: 500px" width="483.328" height="307.2">
<path transform="translate(368,104)" fill="#676767" d="M0 0 C5.28 0 10.56 0 16 0 C16 2.64 16 5.28 16 8 C18.64 8 21.28 8 24 8 C24 10.64 24 13.28 24 16 C26.64 16 29.28 16 32 16 C32 23.92 32 31.84 32 40 C39.92 40 47.84 40 56 40 C56 42.64 56 45.28 56 48 C58.64 48 61.28 48 64 48 C64 50.64 64 53.28 64 56 C66.64 56 69.28 56 72 56 C72 58.64 72 61.28 72 64 C74.64 64 77.28 64 80 64 C80 66.64 80 69.28 80 72 C82.64 72 85.28 72 88 72 C88 79.92 88 87.84 88 96 C85.36 96 82.72 96 80 96 C80 98.64 80 101.28 80 104 C82.64 104 85.28 104 88 104 C88 106.64 88 109.28 88 112 C90.64 112 93.28 112 96 112 C96 114.64 96 117.28 96 120 C98.64 120 101.28 120 104 120 C104 122.64 104 125.28 104 128 C106.64 128 109.28 128 112 128 C112 133.28 112 138.56 112 144 C114.64 144 117.28 144 120 144 C120 159.84 120 175.68 120 192 C122.64 192 125.28 192 128 192 C128 202.56 128 213.12 128 224 C125.36 224 122.72 224 120 224 C120 226.64 120 229.28 120 232 C109.44 232 98.88 232 88 232 C88 239.92 88 247.84 88 256 C90.64 256 93.28 256 96 256 C96 258.64 96 261.28 96 264 C98.64 264 101.28 264 104 264 C104 269.28 104 274.56 104 280 C101.36 280 98.72 280 96 280 C96 282.64 96 285.28 96 288 C80.16 288 64.32 288 48 288 C48 285.36 48 282.72 48 280 C45.36 280 42.72 280 40 280 C40 282.64 40 285.28 40 288 C24.16 288 8.32 288 -8 288 C-8 285.36 -8 282.72 -8 280 C-10.64 280 -13.28 280 -16 280 C-16 274.72 -16 269.44 -16 264 C-13.36 264 -10.72 264 -8 264 C-8 261.36 -8 258.72 -8 256 C-5.36 256 -2.72 256 0 256 C0 216.4 0 176.8 0 136 C-2.64 136 -5.28 136 -8 136 C-8 133.36 -8 130.72 -8 128 C-10.64 128 -13.28 128 -16 128 C-16 125.36 -16 122.72 -16 120 C-18.64 120 -21.28 120 -24 120 C-24 117.36 -24 114.72 -24 112 C-26.64 112 -29.28 112 -32 112 C-32 114.64 -32 117.28 -32 120 C-37.28 120 -42.56 120 -48 120 C-48 122.64 -48 125.28 -48 128 C-50.64 128 -53.28 128 -56 128 C-56 125.36 -56 122.72 -56 120 C-58.64 120 -61.28 120 -64 120 C-64 117.36 -64 114.72 -64 112 C-66.64 112 -69.28 112 -72 112 C-72 106.72 -72 101.44 -72 96 C-69.36 96 -66.72 96 -64 96 C-64 93.36 -64 90.72 -64 88 C-61.36 88 -58.72 88 -56 88 C-56 85.36 -56 82.72 -56 80 C-53.36 80 -50.72 80 -48 80 C-48 77.36 -48 74.72 -48 72 C-45.36 72 -42.72 72 -40 72 C-40 66.72 -40 61.44 -40 56 C-37.36 56 -34.72 56 -32 56 C-32 53.36 -32 50.72 -32 48 C-29.36 48 -26.72 48 -24 48 C-24 45.36 -24 42.72 -24 40 C-21.36 40 -18.72 40 -16 40 C-16 37.36 -16 34.72 -16 32 C-13.36 32 -10.72 32 -8 32 C-8 29.36 -8 26.72 -8 24 C-10.64 24 -13.28 24 -16 24 C-16 21.36 -16 18.72 -16 16 C-13.36 16 -10.72 16 -8 16 C-8 13.36 -8 10.72 -8 8 C-5.36 8 -2.72 8 0 8 C0 5.36 0 2.72 0 0 Z M24 40 C24 42.64 24 45.28 24 48 C26.64 48 29.28 48 32 48 C32 45.36 32 42.72 32 40 C29.36 40 26.72 40 24 40 Z M16 48 C16 50.64 16 53.28 16 56 C18.64 56 21.28 56 24 56 C24 53.36 24 50.72 24 48 C21.36 48 18.72 48 16 48 Z"/>
<path transform="translate(40,248)" fill="#090909" d="M0 0 C79.2 0 158.4 0 240 0 C240 18.48 240 36.96 240 56 C160.8 56 81.6 56 0 56 C0 37.52 0 19.04 0 0 Z"/>
<path transform="translate(368,104)" fill="#6F5F00" d="M0 0 C5.28 0 10.56 0 16 0 C16 2.64 16 5.28 16 8 C18.64 8 21.28 8 24 8 C24 10.64 24 13.28 24 16 C26.64 16 29.28 16 32 16 C32 23.92 32 31.84 32 40 C39.92 40 47.84 40 56 40 C56 42.64 56 45.28 56 48 C58.64 48 61.28 48 64 48 C64 50.64 64 53.28 64 56 C66.64 56 69.28 56 72 56 C72 58.64 72 61.28 72 64 C74.64 64 77.28 64 80 64 C80 66.64 80 69.28 80 72 C82.64 72 85.28 72 88 72 C88 79.92 88 87.84 88 96 C85.36 96 82.72 96 80 96 C80 98.64 80 101.28 80 104 C77.36 104 74.72 104 72 104 C72 98.72 72 93.44 72 88 C69.36 88 66.72 88 64 88 C64 85.36 64 82.72 64 80 C66.64 80 69.28 80 72 80 C72 77.36 72 74.72 72 72 C69.36 72 66.72 72 64 72 C64 69.36 64 66.72 64 64 C61.36 64 58.72 64 56 64 C56 61.36 56 58.72 56 56 C48.08 56 40.16 56 32 56 C32 58.64 32 61.28 32 64 C26.72 64 21.44 64 16 64 C16 69.28 16 74.56 16 80 C18.64 80 21.28 80 24 80 C24 82.64 24 85.28 24 88 C21.36 88 18.72 88 16 88 C16 90.64 16 93.28 16 96 C18.64 96 21.28 96 24 96 C24 98.64 24 101.28 24 104 C18.72 104 13.44 104 8 104 C8 101.36 8 98.72 8 96 C2.72 96 -2.56 96 -8 96 C-8 90.72 -8 85.44 -8 80 C-10.64 80 -13.28 80 -16 80 C-16 90.56 -16 101.12 -16 112 C-13.36 112 -10.72 112 -8 112 C-8 114.64 -8 117.28 -8 120 C-5.36 120 -2.72 120 0 120 C0 122.64 0 125.28 0 128 C2.64 128 5.28 128 8 128 C8 170.24 8 212.48 8 256 C5.36 256 2.72 256 0 256 C0 216.4 0 176.8 0 136 C-2.64 136 -5.28 136 -8 136 C-8 133.36 -8 130.72 -8 128 C-10.64 128 -13.28 128 -16 128 C-16 125.36 -16 122.72 -16 120 C-18.64 120 -21.28 120 -24 120 C-24 117.36 -24 114.72 -24 112 C-26.64 112 -29.28 112 -32 112 C-32 114.64 -32 117.28 -32 120 C-37.28 120 -42.56 120 -48 120 C-48 122.64 -48 125.28 -48 128 C-50.64 128 -53.28 128 -56 128 C-56 125.36 -56 122.72 -56 120 C-58.64 120 -61.28 120 -64 120 C-64 117.36 -64 114.72 -64 112 C-66.64 112 -69.28 112 -72 112 C-72 106.72 -72 101.44 -72 96 C-69.36 96 -66.72 96 -64 96 C-64 93.36 -64 90.72 -64 88 C-61.36 88 -58.72 88 -56 88 C-56 85.36 -56 82.72 -56 80 C-53.36 80 -50.72 80 -48 80 C-48 77.36 -48 74.72 -48 72 C-45.36 72 -42.72 72 -40 72 C-40 66.72 -40 61.44 -40 56 C-37.36 56 -34.72 56 -32 56 C-32 53.36 -32 50.72 -32 48 C-29.36 48 -26.72 48 -24 48 C-24 45.36 -24 42.72 -24 40 C-21.36 40 -18.72 40 -16 40 C-16 37.36 -16 34.72 -16 32 C-13.36 32 -10.72 32 -8 32 C-8 29.36 -8 26.72 -8 24 C-10.64 24 -13.28 24 -16 24 C-16 21.36 -16 18.72 -16 16 C-13.36 16 -10.72 16 -8 16 C-8 13.36 -8 10.72 -8 8 C-5.36 8 -2.72 8 0 8 C0 5.36 0 2.72 0 0 Z M24 40 C24 42.64 24 45.28 24 48 C26.64 48 29.28 48 32 48 C32 45.36 32 42.72 32 40 C29.36 40 26.72 40 24 40 Z M16 48 C16 50.64 16 53.28 16 56 C18.64 56 21.28 56 24 56 C24 53.36 24 50.72 24 48 C21.36 48 18.72 48 16 48 Z"/>
<path transform="translate(48,184)" fill="#090909" d="M0 0 C47.52 0 95.04 0 144 0 C144 18.48 144 36.96 144 56 C96.48 56 48.96 56 0 56 C0 37.52 0 19.04 0 0 Z"/>
<path transform="translate(368,104)" fill="#181818" d="M0 0 C5.28 0 10.56 0 16 0 C16 2.64 16 5.28 16 8 C18.64 8 21.28 8 24 8 C24 10.64 24 13.28 24 16 C26.64 16 29.28 16 32 16 C32 23.92 32 31.84 32 40 C39.92 40 47.84 40 56 40 C56 42.64 56 45.28 56 48 C58.64 48 61.28 48 64 48 C64 50.64 64 53.28 64 56 C66.64 56 69.28 56 72 56 C72 58.64 72 61.28 72 64 C74.64 64 77.28 64 80 64 C80 66.64 80 69.28 80 72 C82.64 72 85.28 72 88 72 C88 79.92 88 87.84 88 96 C85.36 96 82.72 96 80 96 C80 98.64 80 101.28 80 104 C77.36 104 74.72 104 72 104 C72 98.72 72 93.44 72 88 C69.36 88 66.72 88 64 88 C64 85.36 64 82.72 64 80 C66.64 80 69.28 80 72 80 C72 77.36 72 74.72 72 72 C69.36 72 66.72 72 64 72 C64 69.36 64 66.72 64 64 C61.36 64 58.72 64 56 64 C56 61.36 56 58.72 56 56 C48.08 56 40.16 56 32 56 C32 58.64 32 61.28 32 64 C26.72 64 21.44 64 16 64 C16 69.28 16 74.56 16 80 C18.64 80 21.28 80 24 80 C24 82.64 24 85.28 24 88 C21.36 88 18.72 88 16 88 C16 90.64 16 93.28 16 96 C18.64 96 21.28 96 24 96 C24 98.64 24 101.28 24 104 C18.72 104 13.44 104 8 104 C8 101.36 8 98.72 8 96 C5.36 96 2.72 96 0 96 C0 88.08 0 80.16 0 72 C2.64 72 5.28 72 8 72 C8 66.72 8 61.44 8 56 C2.72 56 -2.56 56 -8 56 C-8 50.72 -8 45.44 -8 40 C-10.64 40 -13.28 40 -16 40 C-16 37.36 -16 34.72 -16 32 C-13.36 32 -10.72 32 -8 32 C-8 29.36 -8 26.72 -8 24 C-10.64 24 -13.28 24 -16 24 C-16 21.36 -16 18.72 -16 16 C-13.36 16 -10.72 16 -8 16 C-8 13.36 -8 10.72 -8 8 C-5.36 8 -2.72 8 0 8 C0 5.36 0 2.72 0 0 Z M24 40 C24 42.64 24 45.28 24 48 C26.64 48 29.28 48 32 48 C32 45.36 32 42.72 32 40 C29.36 40 26.72 40 24 40 Z M16 48 C16 50.64 16 53.28 16 56 C18.64 56 21.28 56 24 56 C24 53.36 24 50.72 24 48 C21.36 48 18.72 48 16 48 Z"/>
<path transform="translate(424,224)" fill="#616161" d="M0 0 C13.2 0 26.4 0 40 0 C40 7.92 40 15.84 40 24 C42.64 24 45.28 24 48 24 C48 29.28 48 34.56 48 40 C42.72 40 37.44 40 32 40 C32 37.36 32 34.72 32 32 C29.36 32 26.72 32 24 32 C24 37.28 24 42.56 24 48 C34.56 48 45.12 48 56 48 C56 53.28 56 58.56 56 64 C53.36 64 50.72 64 48 64 C48 61.36 48 58.72 48 56 C42.72 56 37.44 56 32 56 C32 58.64 32 61.28 32 64 C34.64 64 37.28 64 40 64 C40 66.64 40 69.28 40 72 C34.72 72 29.44 72 24 72 C24 90.48 24 108.96 24 128 C21.36 128 18.72 128 16 128 C16 109.52 16 91.04 16 72 C8.08 72 0.16 72 -8 72 C-8 50.88 -8 29.76 -8 8 C-5.36 8 -2.72 8 0 8 C0 5.36 0 2.72 0 0 Z"/>
<path transform="translate(400,160)" fill="#505050" d="M0 0 C7.92 0 15.84 0 24 0 C24 2.64 24 5.28 24 8 C26.64 8 29.28 8 32 8 C32 10.64 32 13.28 32 16 C34.64 16 37.28 16 40 16 C40 18.64 40 21.28 40 24 C37.36 24 34.72 24 32 24 C32 26.64 32 29.28 32 32 C34.64 32 37.28 32 40 32 C40 37.28 40 42.56 40 48 C45.28 48 50.56 48 56 48 C56 50.64 56 53.28 56 56 C58.64 56 61.28 56 64 56 C64 58.64 64 61.28 64 64 C50.8 64 37.6 64 24 64 C24 66.64 24 69.28 24 72 C21.36 72 18.72 72 16 72 C16 90.48 16 108.96 16 128 C13.36 128 10.72 128 8 128 C8 109.52 8 91.04 8 72 C5.36 72 2.72 72 0 72 C0 69.36 0 66.72 0 64 C-2.64 64 -5.28 64 -8 64 C-8 56.08 -8 48.16 -8 40 C-10.64 40 -13.28 40 -16 40 C-16 37.36 -16 34.72 -16 32 C-13.36 32 -10.72 32 -8 32 C-8 29.36 -8 26.72 -8 24 C-10.64 24 -13.28 24 -16 24 C-16 18.72 -16 13.44 -16 8 C-10.72 8 -5.44 8 0 8 C0 5.36 0 2.72 0 0 Z"/>
<path transform="translate(200,184)" fill="#090909" d="M0 0 C21.12 0 42.24 0 64 0 C64 5.28 64 10.56 64 16 C66.64 16 69.28 16 72 16 C72 23.92 72 31.84 72 40 C69.36 40 66.72 40 64 40 C64 45.28 64 50.56 64 56 C42.88 56 21.76 56 0 56 C0 37.52 0 19.04 0 0 Z"/>
<path transform="translate(464,224)" fill="#090909" d="M0 0 C2.64 0 5.28 0 8 0 C8 2.64 8 5.28 8 8 C10.64 8 13.28 8 16 8 C16 13.28 16 18.56 16 24 C18.64 24 21.28 24 24 24 C24 39.84 24 55.68 24 72 C26.64 72 29.28 72 32 72 C32 82.56 32 93.12 32 104 C29.36 104 26.72 104 24 104 C24 106.64 24 109.28 24 112 C13.44 112 2.88 112 -8 112 C-8 119.92 -8 127.84 -8 136 C-10.64 136 -13.28 136 -16 136 C-16 114.88 -16 93.76 -16 72 C-10.72 72 -5.44 72 0 72 C0 69.36 0 66.72 0 64 C-2.64 64 -5.28 64 -8 64 C-8 61.36 -8 58.72 -8 56 C-2.72 56 2.56 56 8 56 C8 58.64 8 61.28 8 64 C10.64 64 13.28 64 16 64 C16 58.72 16 53.44 16 48 C5.44 48 -5.12 48 -16 48 C-16 42.72 -16 37.44 -16 32 C-13.36 32 -10.72 32 -8 32 C-8 34.64 -8 37.28 -8 40 C-2.72 40 2.56 40 8 40 C8 34.72 8 29.44 8 24 C5.36 24 2.72 24 0 24 C0 16.08 0 8.16 0 0 Z"/>
<path transform="translate(408,320)" fill="#0C0C0C" d="M0 0 C2.64 0 5.28 0 8 0 C8 13.2 8 26.4 8 40 C15.92 40 23.84 40 32 40 C32 42.64 32 45.28 32 48 C29.36 48 26.72 48 24 48 C24 50.64 24 53.28 24 56 C31.92 56 39.84 56 48 56 C48 50.72 48 45.44 48 40 C50.64 40 53.28 40 56 40 C56 42.64 56 45.28 56 48 C58.64 48 61.28 48 64 48 C64 53.28 64 58.56 64 64 C61.36 64 58.72 64 56 64 C56 66.64 56 69.28 56 72 C40.16 72 24.32 72 8 72 C8 69.36 8 66.72 8 64 C5.36 64 2.72 64 0 64 C0 66.64 0 69.28 0 72 C-15.84 72 -31.68 72 -48 72 C-48 69.36 -48 66.72 -48 64 C-50.64 64 -53.28 64 -56 64 C-56 58.72 -56 53.44 -56 48 C-53.36 48 -50.72 48 -48 48 C-48 45.36 -48 42.72 -48 40 C-45.36 40 -42.72 40 -40 40 C-40 45.28 -40 50.56 -40 56 C-32.08 56 -24.16 56 -16 56 C-16 53.36 -16 50.72 -16 48 C-18.64 48 -21.28 48 -24 48 C-24 45.36 -24 42.72 -24 40 C-16.08 40 -8.16 40 0 40 C0 26.8 0 13.6 0 0 Z"/>
<path transform="translate(352,184)" fill="#8C8C8C" d="M0 0 C2.64 0 5.28 0 8 0 C8 5.28 8 10.56 8 16 C13.28 16 18.56 16 24 16 C24 18.64 24 21.28 24 24 C29.28 24 34.56 24 40 24 C40 29.28 40 34.56 40 40 C42.64 40 45.28 40 48 40 C48 42.64 48 45.28 48 48 C50.64 48 53.28 48 56 48 C56 66.48 56 84.96 56 104 C48.08 104 40.16 104 32 104 C32 88.16 32 72.32 32 56 C29.36 56 26.72 56 24 56 C24 53.36 24 50.72 24 48 C21.36 48 18.72 48 16 48 C16 45.36 16 42.72 16 40 C13.36 40 10.72 40 8 40 C8 37.36 8 34.72 8 32 C5.36 32 2.72 32 0 32 C0 21.44 0 10.88 0 0 Z"/>
<path transform="translate(424,224)" fill="#8A8A8A" d="M0 0 C13.2 0 26.4 0 40 0 C40 7.92 40 15.84 40 24 C37.36 24 34.72 24 32 24 C32 21.36 32 18.72 32 16 C26.72 16 21.44 16 16 16 C16 31.84 16 47.68 16 64 C8.08 64 0.16 64 -8 64 C-8 45.52 -8 27.04 -8 8 C-5.36 8 -2.72 8 0 8 C0 5.36 0 2.72 0 0 Z"/>
<path transform="translate(400,160)" fill="#3E905B" d="M0 0 C7.92 0 15.84 0 24 0 C24 2.64 24 5.28 24 8 C26.64 8 29.28 8 32 8 C32 10.64 32 13.28 32 16 C34.64 16 37.28 16 40 16 C40 18.64 40 21.28 40 24 C37.36 24 34.72 24 32 24 C32 26.64 32 29.28 32 32 C26.72 32 21.44 32 16 32 C16 34.64 16 37.28 16 40 C21.28 40 26.56 40 32 40 C32 42.64 32 45.28 32 48 C18.8 48 5.6 48 -8 48 C-8 45.36 -8 42.72 -8 40 C-10.64 40 -13.28 40 -16 40 C-16 37.36 -16 34.72 -16 32 C-13.36 32 -10.72 32 -8 32 C-8 29.36 -8 26.72 -8 24 C-10.64 24 -13.28 24 -16 24 C-16 18.72 -16 13.44 -16 8 C-10.72 8 -5.44 8 0 8 C0 5.36 0 2.72 0 0 Z"/>
<path transform="translate(328,160)" fill="#232323" d="M0 0 C2.64 0 5.28 0 8 0 C8 10.56 8 21.12 8 32 C10.64 32 13.28 32 16 32 C16 39.92 16 47.84 16 56 C13.36 56 10.72 56 8 56 C8 58.64 8 61.28 8 64 C2.72 64 -2.56 64 -8 64 C-8 66.64 -8 69.28 -8 72 C-10.64 72 -13.28 72 -16 72 C-16 69.36 -16 66.72 -16 64 C-18.64 64 -21.28 64 -24 64 C-24 61.36 -24 58.72 -24 56 C-26.64 56 -29.28 56 -32 56 C-32 50.72 -32 45.44 -32 40 C-29.36 40 -26.72 40 -24 40 C-24 37.36 -24 34.72 -24 32 C-21.36 32 -18.72 32 -16 32 C-16 29.36 -16 26.72 -16 24 C-13.36 24 -10.72 24 -8 24 C-8 21.36 -8 18.72 -8 16 C-5.36 16 -2.72 16 0 16 C0 10.72 0 5.44 0 0 Z"/>
<path transform="translate(376,240)" fill="#616161" d="M0 0 C2.64 0 5.28 0 8 0 C8 15.84 8 31.68 8 48 C15.92 48 23.84 48 32 48 C32 50.64 32 53.28 32 56 C24.08 56 16.16 56 8 56 C8 74.48 8 92.96 8 112 C15.92 112 23.84 112 32 112 C32 114.64 32 117.28 32 120 C24.08 120 16.16 120 8 120 C8 122.64 8 125.28 8 128 C10.64 128 13.28 128 16 128 C16 130.64 16 133.28 16 136 C8.08 136 0.16 136 -8 136 C-8 130.72 -8 125.44 -8 120 C-5.36 120 -2.72 120 0 120 C0 80.4 0 40.8 0 0 Z"/>
<path transform="translate(408,288)" fill="#7F7F7F" d="M0 0 C2.64 0 5.28 0 8 0 C8 2.64 8 5.28 8 8 C15.92 8 23.84 8 32 8 C32 23.84 32 39.68 32 56 C29.36 56 26.72 56 24 56 C24 45.44 24 34.88 24 24 C10.8 24 -2.4 24 -16 24 C-16 34.56 -16 45.12 -16 56 C-18.64 56 -21.28 56 -24 56 C-24 40.16 -24 24.32 -24 8 C-16.08 8 -8.16 8 0 8 C0 5.36 0 2.72 0 0 Z"/>
<path transform="translate(456,360)" fill="#5F5F5F" d="M0 0 C2.64 0 5.28 0 8 0 C8 2.64 8 5.28 8 8 C10.64 8 13.28 8 16 8 C16 13.28 16 18.56 16 24 C13.36 24 10.72 24 8 24 C8 26.64 8 29.28 8 32 C-7.84 32 -23.68 32 -40 32 C-40 26.72 -40 21.44 -40 16 C-26.8 16 -13.6 16 0 16 C0 10.72 0 5.44 0 0 Z"/>
<path transform="translate(360,360)" fill="#5F5F5F" d="M0 0 C2.64 0 5.28 0 8 0 C8 5.28 8 10.56 8 16 C21.2 16 34.4 16 48 16 C48 21.28 48 26.56 48 32 C32.16 32 16.32 32 0 32 C0 29.36 0 26.72 0 24 C-2.64 24 -5.28 24 -8 24 C-8 18.72 -8 13.44 -8 8 C-5.36 8 -2.72 8 0 8 C0 5.36 0 2.72 0 0 Z"/>
<path transform="translate(456,280)" fill="#051742" d="M0 0 C5.28 0 10.56 0 16 0 C16 5.28 16 10.56 16 16 C18.64 16 21.28 16 24 16 C24 18.64 24 21.28 24 24 C26.64 24 29.28 24 32 24 C32 26.64 32 29.28 32 32 C29.36 32 26.72 32 24 32 C24 34.64 24 37.28 24 40 C13.44 40 2.88 40 -8 40 C-8 32.08 -8 24.16 -8 16 C-2.72 16 2.56 16 8 16 C8 13.36 8 10.72 8 8 C5.36 8 2.72 8 0 8 C0 5.36 0 2.72 0 0 Z"/>
<path transform="translate(208,256)" fill="#D7D7D7" d="M0 0 C7.92 0 15.84 0 24 0 C24 13.2 24 26.4 24 40 C16.08 40 8.16 40 0 40 C0 26.8 0 13.6 0 0 Z"/>
<path transform="translate(368,240)" fill="#090909" d="M0 0 C2.64 0 5.28 0 8 0 C8 39.6 8 79.2 8 120 C5.36 120 2.72 120 0 120 C0 80.4 0 40.8 0 0 Z"/>
<path transform="translate(240,256)" fill="#CCCCCC" d="M0 0 C2.64 0 5.28 0 8 0 C8 2.64 8 5.28 8 8 C10.64 8 13.28 8 16 8 C16 10.64 16 13.28 16 16 C18.64 16 21.28 16 24 16 C24 10.72 24 5.44 24 0 C26.64 0 29.28 0 32 0 C32 13.2 32 26.4 32 40 C29.36 40 26.72 40 24 40 C24 37.36 24 34.72 24 32 C21.36 32 18.72 32 16 32 C16 29.36 16 26.72 16 24 C13.36 24 10.72 24 8 24 C8 29.28 8 34.56 8 40 C5.36 40 2.72 40 0 40 C0 26.8 0 13.6 0 0 Z"/>
<path transform="translate(56,192)" fill="#D8D8D8" d="M0 0 C10.56 0 21.12 0 32 0 C32 2.64 32 5.28 32 8 C24.08 8 16.16 8 8 8 C8 15.92 8 23.84 8 32 C13.28 32 18.56 32 24 32 C24 29.36 24 26.72 24 24 C21.36 24 18.72 24 16 24 C16 21.36 16 18.72 16 16 C21.28 16 26.56 16 32 16 C32 23.92 32 31.84 32 40 C21.44 40 10.88 40 0 40 C0 26.8 0 13.6 0 0 Z"/>
<path transform="translate(96,192)" fill="#CCCCCC" d="M0 0 C7.92 0 15.84 0 24 0 C24 5.28 24 10.56 24 16 C21.36 16 18.72 16 16 16 C16 18.64 16 21.28 16 24 C18.64 24 21.28 24 24 24 C24 29.28 24 34.56 24 40 C21.36 40 18.72 40 16 40 C16 37.36 16 34.72 16 32 C13.36 32 10.72 32 8 32 C8 34.64 8 37.28 8 40 C5.36 40 2.72 40 0 40 C0 26.8 0 13.6 0 0 Z"/>
<path transform="translate(464,224)" fill="#4A4A4A" d="M0 0 C2.64 0 5.28 0 8 0 C8 2.64 8 5.28 8 8 C10.64 8 13.28 8 16 8 C16 21.2 16 34.4 16 48 C5.44 48 -5.12 48 -16 48 C-16 42.72 -16 37.44 -16 32 C-13.36 32 -10.72 32 -8 32 C-8 34.64 -8 37.28 -8 40 C-2.72 40 2.56 40 8 40 C8 34.72 8 29.44 8 24 C5.36 24 2.72 24 0 24 C0 16.08 0 8.16 0 0 Z"/>
<path transform="translate(416,288)" fill="#616161" d="M0 0 C10.56 0 21.12 0 32 0 C32 21.12 32 42.24 32 64 C29.36 64 26.72 64 24 64 C24 45.52 24 27.04 24 8 C16.08 8 8.16 8 0 8 C0 5.36 0 2.72 0 0 Z"/>
<path transform="translate(112,256)" fill="#D2D2D2" d="M0 0 C7.92 0 15.84 0 24 0 C24 13.2 24 26.4 24 40 C21.36 40 18.72 40 16 40 C16 29.44 16 18.88 16 8 C13.36 8 10.72 8 8 8 C8 18.56 8 29.12 8 40 C5.36 40 2.72 40 0 40 C0 26.8 0 13.6 0 0 Z"/>
<path transform="translate(48,256)" fill="#D8D8D8" d="M0 0 C7.92 0 15.84 0 24 0 C24 2.64 24 5.28 24 8 C18.72 8 13.44 8 8 8 C8 10.64 8 13.28 8 16 C13.28 16 18.56 16 24 16 C24 23.92 24 31.84 24 40 C16.08 40 8.16 40 0 40 C0 37.36 0 34.72 0 32 C5.28 32 10.56 32 16 32 C16 29.36 16 26.72 16 24 C10.72 24 5.44 24 0 24 C0 16.08 0 8.16 0 0 Z"/>
<path transform="translate(416,192)" fill="#7F7F7F" d="M0 0 C7.92 0 15.84 0 24 0 C24 5.28 24 10.56 24 16 C29.28 16 34.56 16 40 16 C40 18.64 40 21.28 40 24 C42.64 24 45.28 24 48 24 C48 26.64 48 29.28 48 32 C37.44 32 26.88 32 16 32 C16 24.08 16 16.16 16 8 C10.72 8 5.44 8 0 8 C0 5.36 0 2.72 0 0 Z"/>
<path transform="translate(128,192)" fill="#D3D3D3" d="M0 0 C7.92 0 15.84 0 24 0 C24 2.64 24 5.28 24 8 C18.72 8 13.44 8 8 8 C8 10.64 8 13.28 8 16 C13.28 16 18.56 16 24 16 C24 18.64 24 21.28 24 24 C18.72 24 13.44 24 8 24 C8 26.64 8 29.28 8 32 C13.28 32 18.56 32 24 32 C24 34.64 24 37.28 24 40 C16.08 40 8.16 40 0 40 C0 26.8 0 13.6 0 0 Z"/>
<path transform="translate(400,160)" fill="#6A6A6A" d="M0 0 C7.92 0 15.84 0 24 0 C24 2.64 24 5.28 24 8 C26.64 8 29.28 8 32 8 C32 10.64 32 13.28 32 16 C26.72 16 21.44 16 16 16 C16 18.64 16 21.28 16 24 C13.36 24 10.72 24 8 24 C8 21.36 8 18.72 8 16 C2.72 16 -2.56 16 -8 16 C-8 18.64 -8 21.28 -8 24 C-10.64 24 -13.28 24 -16 24 C-16 18.72 -16 13.44 -16 8 C-10.72 8 -5.44 8 0 8 C0 5.36 0 2.72 0 0 Z"/>
<path transform="translate(376,240)" fill="#616161" d="M0 0 C2.64 0 5.28 0 8 0 C8 15.84 8 31.68 8 48 C15.92 48 23.84 48 32 48 C32 50.64 32 53.28 32 56 C21.44 56 10.88 56 0 56 C0 37.52 0 19.04 0 0 Z"/>
<path transform="translate(232,192)" fill="#D31B1B" d="M0 0 C2.64 0 5.28 0 8 0 C8 5.28 8 10.56 8 16 C10.64 16 13.28 16 16 16 C16 10.72 16 5.44 16 0 C18.64 0 21.28 0 24 0 C24 5.28 24 10.56 24 16 C26.64 16 29.28 16 32 16 C32 18.64 32 21.28 32 24 C29.36 24 26.72 24 24 24 C24 29.28 24 34.56 24 40 C21.36 40 18.72 40 16 40 C16 34.72 16 29.44 16 24 C10.72 24 5.44 24 0 24 C0 16.08 0 8.16 0 0 Z"/>
<path transform="translate(344,184)" fill="#616161" d="M0 0 C2.64 0 5.28 0 8 0 C8 10.56 8 21.12 8 32 C10.64 32 13.28 32 16 32 C16 34.64 16 37.28 16 40 C18.64 40 21.28 40 24 40 C24 42.64 24 45.28 24 48 C26.64 48 29.28 48 32 48 C32 50.64 32 53.28 32 56 C26.72 56 21.44 56 16 56 C16 53.36 16 50.72 16 48 C13.36 48 10.72 48 8 48 C8 45.36 8 42.72 8 40 C5.36 40 2.72 40 0 40 C0 26.8 0 13.6 0 0 Z"/>
<path transform="translate(176,256)" fill="#D8D8D8" d="M0 0 C7.92 0 15.84 0 24 0 C24 2.64 24 5.28 24 8 C21.36 8 18.72 8 16 8 C16 15.92 16 23.84 16 32 C18.64 32 21.28 32 24 32 C24 34.64 24 37.28 24 40 C16.08 40 8.16 40 0 40 C0 37.36 0 34.72 0 32 C2.64 32 5.28 32 8 32 C8 24.08 8 16.16 8 8 C5.36 8 2.72 8 0 8 C0 5.36 0 2.72 0 0 Z"/>
<path transform="translate(160,192)" fill="#D1D1D1" d="M0 0 C2.64 0 5.28 0 8 0 C8 5.28 8 10.56 8 16 C10.64 16 13.28 16 16 16 C16 10.72 16 5.44 16 0 C18.64 0 21.28 0 24 0 C24 7.92 24 15.84 24 24 C21.36 24 18.72 24 16 24 C16 29.28 16 34.56 16 40 C13.36 40 10.72 40 8 40 C8 34.72 8 29.44 8 24 C5.36 24 2.72 24 0 24 C0 16.08 0 8.16 0 0 Z"/>
<path transform="translate(368,176)" fill="#2D2D2D" d="M0 0 C5.28 0 10.56 0 16 0 C16 2.64 16 5.28 16 8 C18.64 8 21.28 8 24 8 C24 10.64 24 13.28 24 16 C21.36 16 18.72 16 16 16 C16 18.64 16 21.28 16 24 C18.64 24 21.28 24 24 24 C24 26.64 24 29.28 24 32 C18.72 32 13.44 32 8 32 C8 29.36 8 26.72 8 24 C5.36 24 2.72 24 0 24 C0 16.08 0 8.16 0 0 Z"/>
<path transform="translate(448,328)" fill="#090909" d="M0 0 C13.2 0 26.4 0 40 0 C40 2.64 40 5.28 40 8 C29.44 8 18.88 8 8 8 C8 15.92 8 23.84 8 32 C5.36 32 2.72 32 0 32 C0 21.44 0 10.88 0 0 Z"/>
<path transform="translate(448,272)" fill="#837A0F" d="M0 0 C10.56 0 21.12 0 32 0 C32 5.28 32 10.56 32 16 C29.36 16 26.72 16 24 16 C24 13.36 24 10.72 24 8 C18.72 8 13.44 8 8 8 C8 10.64 8 13.28 8 16 C10.64 16 13.28 16 16 16 C16 18.64 16 21.28 16 24 C10.72 24 5.44 24 0 24 C0 16.08 0 8.16 0 0 Z"/>
<path transform="translate(216,192)" fill="#D51C1C" d="M0 0 C2.64 0 5.28 0 8 0 C8 10.56 8 21.12 8 32 C10.64 32 13.28 32 16 32 C16 34.64 16 37.28 16 40 C8.08 40 0.16 40 -8 40 C-8 37.36 -8 34.72 -8 32 C-5.36 32 -2.72 32 0 32 C0 26.72 0 21.44 0 16 C-2.64 16 -5.28 16 -8 16 C-8 13.36 -8 10.72 -8 8 C-5.36 8 -2.72 8 0 8 C0 5.36 0 2.72 0 0 Z"/>
<path transform="translate(440,176)" fill="#2D2D2D" d="M0 0 C5.28 0 10.56 0 16 0 C16 7.92 16 15.84 16 24 C13.36 24 10.72 24 8 24 C8 26.64 8 29.28 8 32 C5.36 32 2.72 32 0 32 C0 26.72 0 21.44 0 16 C-2.64 16 -5.28 16 -8 16 C-8 13.36 -8 10.72 -8 8 C-5.36 8 -2.72 8 0 8 C0 5.36 0 2.72 0 0 Z"/>
<path transform="translate(368,104)" fill="#232323" d="M0 0 C5.28 0 10.56 0 16 0 C16 2.64 16 5.28 16 8 C18.64 8 21.28 8 24 8 C24 10.64 24 13.28 24 16 C16.08 16 8.16 16 0 16 C0 18.64 0 21.28 0 24 C-5.28 24 -10.56 24 -16 24 C-16 21.36 -16 18.72 -16 16 C-13.36 16 -10.72 16 -8 16 C-8 13.36 -8 10.72 -8 8 C-5.36 8 -2.72 8 0 8 C0 5.36 0 2.72 0 0 Z"/>
<path transform="translate(416,312)" fill="#7F7F7F" d="M0 0 C5.28 0 10.56 0 16 0 C16 10.56 16 21.12 16 32 C18.64 32 21.28 32 24 32 C24 34.64 24 37.28 24 40 C18.72 40 13.44 40 8 40 C8 29.44 8 18.88 8 8 C5.36 8 2.72 8 0 8 C0 5.36 0 2.72 0 0 Z"/>
<path transform="translate(416,304)" fill="#929292" d="M0 0 C7.92 0 15.84 0 24 0 C24 13.2 24 26.4 24 40 C21.36 40 18.72 40 16 40 C16 29.44 16 18.88 16 8 C10.72 8 5.44 8 0 8 C0 5.36 0 2.72 0 0 Z"/>
<path transform="translate(384,304)" fill="#929292" d="M0 0 C7.92 0 15.84 0 24 0 C24 2.64 24 5.28 24 8 C18.72 8 13.44 8 8 8 C8 18.56 8 29.12 8 40 C5.36 40 2.72 40 0 40 C0 26.8 0 13.6 0 0 Z"/>
<path transform="translate(456,280)" fill="#0D39A2" d="M0 0 C5.28 0 10.56 0 16 0 C16 5.28 16 10.56 16 16 C18.64 16 21.28 16 24 16 C24 18.64 24 21.28 24 24 C13.44 24 2.88 24 -8 24 C-8 21.36 -8 18.72 -8 16 C-2.72 16 2.56 16 8 16 C8 13.36 8 10.72 8 8 C5.36 8 2.72 8 0 8 C0 5.36 0 2.72 0 0 Z"/>
<path transform="translate(144,256)" fill="#D8D8D8" d="M0 0 C7.92 0 15.84 0 24 0 C24 2.64 24 5.28 24 8 C21.36 8 18.72 8 16 8 C16 18.56 16 29.12 16 40 C13.36 40 10.72 40 8 40 C8 29.44 8 18.88 8 8 C5.36 8 2.72 8 0 8 C0 5.36 0 2.72 0 0 Z"/>
<path transform="translate(80,256)" fill="#D8D8D8" d="M0 0 C7.92 0 15.84 0 24 0 C24 2.64 24 5.28 24 8 C21.36 8 18.72 8 16 8 C16 18.56 16 29.12 16 40 C13.36 40 10.72 40 8 40 C8 29.44 8 18.88 8 8 C5.36 8 2.72 8 0 8 C0 5.36 0 2.72 0 0 Z"/>
<path transform="translate(408,232)" fill="#505050" d="M0 0 C2.64 0 5.28 0 8 0 C8 18.48 8 36.96 8 56 C5.36 56 2.72 56 0 56 C0 37.52 0 19.04 0 0 Z"/>
<path transform="translate(336,192)" fill="#090909" d="M0 0 C2.64 0 5.28 0 8 0 C8 7.92 8 15.84 8 24 C5.36 24 2.72 24 0 24 C0 26.64 0 29.28 0 32 C-5.28 32 -10.56 32 -16 32 C-16 29.36 -16 26.72 -16 24 C-13.36 24 -10.72 24 -8 24 C-8 18.72 -8 13.44 -8 8 C-5.36 8 -2.72 8 0 8 C0 5.36 0 2.72 0 0 Z"/>
<path transform="translate(352,144)" fill="#A09E06" d="M0 0 C2.64 0 5.28 0 8 0 C8 5.28 8 10.56 8 16 C13.28 16 18.56 16 24 16 C24 21.28 24 26.56 24 32 C18.72 32 13.44 32 8 32 C8 29.36 8 26.72 8 24 C5.36 24 2.72 24 0 24 C0 16.08 0 8.16 0 0 Z"/>
<path transform="translate(416,384)" fill="#090909" d="M0 0 C15.84 0 31.68 0 48 0 C48 2.64 48 5.28 48 8 C32.16 8 16.32 8 0 8 C0 5.36 0 2.72 0 0 Z"/>
<path transform="translate(360,384)" fill="#090909" d="M0 0 C15.84 0 31.68 0 48 0 C48 2.64 48 5.28 48 8 C32.16 8 16.32 8 0 8 C0 5.36 0 2.72 0 0 Z"/>
<path transform="translate(480,312)" fill="#051742" d="M0 0 C2.64 0 5.28 0 8 0 C8 5.28 8 10.56 8 16 C-5.2 16 -18.4 16 -32 16 C-32 13.36 -32 10.72 -32 8 C-21.44 8 -10.88 8 0 8 C0 5.36 0 2.72 0 0 Z"/>
<path transform="translate(416,240)" fill="#909090" d="M0 0 C2.64 0 5.28 0 8 0 C8 5.28 8 10.56 8 16 C10.64 16 13.28 16 16 16 C16 18.64 16 21.28 16 24 C18.64 24 21.28 24 24 24 C24 26.64 24 29.28 24 32 C18.72 32 13.44 32 8 32 C8 29.36 8 26.72 8 24 C5.36 24 2.72 24 0 24 C0 16.08 0 8.16 0 0 Z"/>
<path transform="translate(400,240)" fill="#909090" d="M0 0 C2.64 0 5.28 0 8 0 C8 7.92 8 15.84 8 24 C5.36 24 2.72 24 0 24 C0 26.64 0 29.28 0 32 C-5.28 32 -10.56 32 -16 32 C-16 29.36 -16 26.72 -16 24 C-13.36 24 -10.72 24 -8 24 C-8 21.36 -8 18.72 -8 16 C-5.36 16 -2.72 16 0 16 C0 10.72 0 5.44 0 0 Z"/>
<path transform="translate(320,192)" fill="#4D4D4D" d="M0 0 C5.28 0 10.56 0 16 0 C16 2.64 16 5.28 16 8 C13.36 8 10.72 8 8 8 C8 13.28 8 18.56 8 24 C2.72 24 -2.56 24 -8 24 C-8 18.72 -8 13.44 -8 8 C-5.36 8 -2.72 8 0 8 C0 5.36 0 2.72 0 0 Z"/>
<path transform="translate(408,192)" fill="#707070" d="M0 0 C2.64 0 5.28 0 8 0 C8 2.64 8 5.28 8 8 C13.28 8 18.56 8 24 8 C24 10.64 24 13.28 24 16 C10.8 16 -2.4 16 -16 16 C-16 13.36 -16 10.72 -16 8 C-10.72 8 -5.44 8 0 8 C0 5.36 0 2.72 0 0 Z"/>
<path transform="translate(440,360)" fill="#B2B0B0" d="M0 0 C5.28 0 10.56 0 16 0 C16 5.28 16 10.56 16 16 C8.08 16 0.16 16 -8 16 C-8 13.36 -8 10.72 -8 8 C-5.36 8 -2.72 8 0 8 C0 5.36 0 2.72 0 0 Z"/>
<path transform="translate(368,360)" fill="#B2B0B0" d="M0 0 C5.28 0 10.56 0 16 0 C16 2.64 16 5.28 16 8 C18.64 8 21.28 8 24 8 C24 10.64 24 13.28 24 16 C16.08 16 8.16 16 0 16 C0 10.72 0 5.44 0 0 Z"/>
<path transform="translate(384,360)" fill="#161616" d="M0 0 C7.92 0 15.84 0 24 0 C24 5.28 24 10.56 24 16 C18.72 16 13.44 16 8 16 C8 13.36 8 10.72 8 8 C5.36 8 2.72 8 0 8 C0 5.36 0 2.72 0 0 Z"/>
<path transform="translate(224,256)" fill="#D7D7D7" d="M0 0 C2.64 0 5.28 0 8 0 C8 13.2 8 26.4 8 40 C5.36 40 2.72 40 0 40 C0 26.8 0 13.6 0 0 Z"/>
<path transform="translate(464,224)" fill="#616161" d="M0 0 C2.64 0 5.28 0 8 0 C8 2.64 8 5.28 8 8 C10.64 8 13.28 8 16 8 C16 13.28 16 18.56 16 24 C10.72 24 5.44 24 0 24 C0 16.08 0 8.16 0 0 Z"/>
<path transform="translate(104,200)" fill="#BFBFBF" d="M0 0 C2.64 0 5.28 0 8 0 C8 5.28 8 10.56 8 16 C10.64 16 13.28 16 16 16 C16 21.28 16 26.56 16 32 C13.36 32 10.72 32 8 32 C8 29.36 8 26.72 8 24 C5.36 24 2.72 24 0 24 C0 16.08 0 8.16 0 0 Z"/>
<path transform="translate(328,160)" fill="#232323" d="M0 0 C2.64 0 5.28 0 8 0 C8 10.56 8 21.12 8 32 C5.36 32 2.72 32 0 32 C0 29.36 0 26.72 0 24 C-2.64 24 -5.28 24 -8 24 C-8 21.36 -8 18.72 -8 16 C-5.36 16 -2.72 16 0 16 C0 10.72 0 5.44 0 0 Z"/>
<path transform="translate(360,360)" fill="#737070" d="M0 0 C2.64 0 5.28 0 8 0 C8 5.28 8 10.56 8 16 C5.36 16 2.72 16 0 16 C0 18.64 0 21.28 0 24 C-2.64 24 -5.28 24 -8 24 C-8 18.72 -8 13.44 -8 8 C-5.36 8 -2.72 8 0 8 C0 5.36 0 2.72 0 0 Z"/>
<path transform="translate(376,352)" fill="#4A4A4A" d="M0 0 C10.56 0 21.12 0 32 0 C32 2.64 32 5.28 32 8 C21.44 8 10.88 8 0 8 C0 5.36 0 2.72 0 0 Z"/>
<path transform="translate(416,320)" fill="#616161" d="M0 0 C2.64 0 5.28 0 8 0 C8 10.56 8 21.12 8 32 C5.36 32 2.72 32 0 32 C0 21.44 0 10.88 0 0 Z"/>
<path transform="translate(400,320)" fill="#616161" d="M0 0 C2.64 0 5.28 0 8 0 C8 10.56 8 21.12 8 32 C5.36 32 2.72 32 0 32 C0 21.44 0 10.88 0 0 Z"/>
<path transform="translate(448,312)" fill="#0D39A2" d="M0 0 C10.56 0 21.12 0 32 0 C32 2.64 32 5.28 32 8 C21.44 8 10.88 8 0 8 C0 5.36 0 2.72 0 0 Z"/>
<path transform="translate(488,296)" fill="#090909" d="M0 0 C2.64 0 5.28 0 8 0 C8 10.56 8 21.12 8 32 C5.36 32 2.72 32 0 32 C0 21.44 0 10.88 0 0 Z"/>
<path transform="translate(416,288)" fill="#505050" d="M0 0 C10.56 0 21.12 0 32 0 C32 2.64 32 5.28 32 8 C21.44 8 10.88 8 0 8 C0 5.36 0 2.72 0 0 Z"/>
<path transform="translate(376,288)" fill="#505050" d="M0 0 C10.56 0 21.12 0 32 0 C32 2.64 32 5.28 32 8 C21.44 8 10.88 8 0 8 C0 5.36 0 2.72 0 0 Z"/>
<path transform="translate(368,200)" fill="#7F7F7F" d="M0 0 C2.64 0 5.28 0 8 0 C8 2.64 8 5.28 8 8 C13.28 8 18.56 8 24 8 C24 10.64 24 13.28 24 16 C16.08 16 8.16 16 0 16 C0 10.72 0 5.44 0 0 Z"/>
<path transform="translate(416,192)" fill="#505050" d="M0 0 C7.92 0 15.84 0 24 0 C24 5.28 24 10.56 24 16 C21.36 16 18.72 16 16 16 C16 13.36 16 10.72 16 8 C10.72 8 5.44 8 0 8 C0 5.36 0 2.72 0 0 Z"/>
<path transform="translate(96,192)" fill="#D3D3D3" d="M0 0 C7.92 0 15.84 0 24 0 C24 5.28 24 10.56 24 16 C21.36 16 18.72 16 16 16 C16 13.36 16 10.72 16 8 C10.72 8 5.44 8 0 8 C0 5.36 0 2.72 0 0 Z"/>
<path transform="translate(352,176)" fill="#616161" d="M0 0 C5.28 0 10.56 0 16 0 C16 7.92 16 15.84 16 24 C13.36 24 10.72 24 8 24 C8 18.72 8 13.44 8 8 C5.36 8 2.72 8 0 8 C0 5.36 0 2.72 0 0 Z"/>
<path transform="translate(376,152)" fill="#090909" d="M0 0 C2.64 0 5.28 0 8 0 C8 2.64 8 5.28 8 8 C10.64 8 13.28 8 16 8 C16 10.64 16 13.28 16 16 C13.36 16 10.72 16 8 16 C8 18.64 8 21.28 8 24 C5.36 24 2.72 24 0 24 C0 16.08 0 8.16 0 0 Z"/>
<path transform="translate(368,120)" fill="#4D4D4D" d="M0 0 C5.28 0 10.56 0 16 0 C16 7.92 16 15.84 16 24 C13.36 24 10.72 24 8 24 C8 18.72 8 13.44 8 8 C5.36 8 2.72 8 0 8 C0 5.36 0 2.72 0 0 Z"/>
<path transform="translate(152,272)" fill="#DBDBDB" d="M0 0 C2.64 0 5.28 0 8 0 C8 7.92 8 15.84 8 24 C5.36 24 2.72 24 0 24 C0 16.08 0 8.16 0 0 Z"/>
<path transform="translate(88,272)" fill="#DBDBDB" d="M0 0 C2.64 0 5.28 0 8 0 C8 7.92 8 15.84 8 24 C5.36 24 2.72 24 0 24 C0 16.08 0 8.16 0 0 Z"/>
<path transform="translate(216,264)" fill="#090909" d="M0 0 C2.64 0 5.28 0 8 0 C8 7.92 8 15.84 8 24 C5.36 24 2.72 24 0 24 C0 16.08 0 8.16 0 0 Z"/>
<path transform="translate(400,224)" fill="#252525" d="M0 0 C7.92 0 15.84 0 24 0 C24 2.64 24 5.28 24 8 C16.08 8 8.16 8 0 8 C0 5.36 0 2.72 0 0 Z"/>
<path transform="translate(448,208)" fill="#616161" d="M0 0 C2.64 0 5.28 0 8 0 C8 2.64 8 5.28 8 8 C10.64 8 13.28 8 16 8 C16 10.64 16 13.28 16 16 C10.72 16 5.44 16 0 16 C0 10.72 0 5.44 0 0 Z"/>
<path transform="translate(416,208)" fill="#2D2D2D" d="M0 0 C5.28 0 10.56 0 16 0 C16 5.28 16 10.56 16 16 C13.36 16 10.72 16 8 16 C8 13.36 8 10.72 8 8 C5.36 8 2.72 8 0 8 C0 5.36 0 2.72 0 0 Z"/>
<path transform="translate(392,208)" fill="#2D2D2D" d="M0 0 C5.28 0 10.56 0 16 0 C16 2.64 16 5.28 16 8 C13.36 8 10.72 8 8 8 C8 10.64 8 13.28 8 16 C5.36 16 2.72 16 0 16 C0 10.72 0 5.44 0 0 Z"/>
<path transform="translate(160,192)" fill="#D4D4D4" d="M0 0 C2.64 0 5.28 0 8 0 C8 7.92 8 15.84 8 24 C5.36 24 2.72 24 0 24 C0 16.08 0 8.16 0 0 Z"/>
<path transform="translate(384,192)" fill="#505050" d="M0 0 C7.92 0 15.84 0 24 0 C24 2.64 24 5.28 24 8 C16.08 8 8.16 8 0 8 C0 5.36 0 2.72 0 0 Z"/>
<path transform="translate(320,192)" fill="#232323" d="M0 0 C5.28 0 10.56 0 16 0 C16 2.64 16 5.28 16 8 C13.36 8 10.72 8 8 8 C8 10.64 8 13.28 8 16 C5.36 16 2.72 16 0 16 C0 10.72 0 5.44 0 0 Z"/>
<path transform="translate(128,192)" fill="#D7D7D7" d="M0 0 C7.92 0 15.84 0 24 0 C24 2.64 24 5.28 24 8 C16.08 8 8.16 8 0 8 C0 5.36 0 2.72 0 0 Z"/>
<path transform="translate(448,176)" fill="#090909" d="M0 0 C2.64 0 5.28 0 8 0 C8 7.92 8 15.84 8 24 C5.36 24 2.72 24 0 24 C0 16.08 0 8.16 0 0 Z"/>
<path transform="translate(368,176)" fill="#090909" d="M0 0 C2.64 0 5.28 0 8 0 C8 7.92 8 15.84 8 24 C5.36 24 2.72 24 0 24 C0 16.08 0 8.16 0 0 Z"/>
<path transform="translate(384,168)" fill="#505050" d="M0 0 C5.28 0 10.56 0 16 0 C16 2.64 16 5.28 16 8 C13.36 8 10.72 8 8 8 C8 10.64 8 13.28 8 16 C5.36 16 2.72 16 0 16 C0 10.72 0 5.44 0 0 Z"/>
<path transform="translate(368,160)" fill="#767509" d="M0 0 C2.64 0 5.28 0 8 0 C8 5.28 8 10.56 8 16 C2.72 16 -2.56 16 -8 16 C-8 13.36 -8 10.72 -8 8 C-5.36 8 -2.72 8 0 8 C0 5.36 0 2.72 0 0 Z"/>
<path transform="translate(400,160)" fill="#505050" d="M0 0 C7.92 0 15.84 0 24 0 C24 2.64 24 5.28 24 8 C16.08 8 8.16 8 0 8 C0 5.36 0 2.72 0 0 Z"/>
<path transform="translate(400,144)" fill="#090909" d="M0 0 C7.92 0 15.84 0 24 0 C24 2.64 24 5.28 24 8 C16.08 8 8.16 8 0 8 C0 5.36 0 2.72 0 0 Z"/>
<path transform="translate(392,120)" fill="#090909" d="M0 0 C2.64 0 5.28 0 8 0 C8 7.92 8 15.84 8 24 C5.36 24 2.72 24 0 24 C0 16.08 0 8.16 0 0 Z"/>
<path transform="translate(384,120)" fill="#232323" d="M0 0 C2.64 0 5.28 0 8 0 C8 7.92 8 15.84 8 24 C5.36 24 2.72 24 0 24 C0 16.08 0 8.16 0 0 Z"/>
<path transform="translate(464,368)" fill="#090909" d="M0 0 C2.64 0 5.28 0 8 0 C8 5.28 8 10.56 8 16 C5.36 16 2.72 16 0 16 C0 10.72 0 5.44 0 0 Z"/>
<path transform="translate(456,360)" fill="#737070" d="M0 0 C2.64 0 5.28 0 8 0 C8 5.28 8 10.56 8 16 C5.36 16 2.72 16 0 16 C0 10.72 0 5.44 0 0 Z"/>
<path transform="translate(352,368)" fill="#090909" d="M0 0 C2.64 0 5.28 0 8 0 C8 5.28 8 10.56 8 16 C5.36 16 2.72 16 0 16 C0 10.72 0 5.44 0 0 Z"/>
<path transform="translate(440,360)" fill="#848282" d="M0 0 C5.28 0 10.56 0 16 0 C16 2.64 16 5.28 16 8 C10.72 8 5.44 8 0 8 C0 5.36 0 2.72 0 0 Z"/>
<path transform="translate(368,360)" fill="#848282" d="M0 0 C5.28 0 10.56 0 16 0 C16 2.64 16 5.28 16 8 C10.72 8 5.44 8 0 8 C0 5.36 0 2.72 0 0 Z"/>
<path transform="translate(424,344)" fill="#747474" d="M0 0 C5.28 0 10.56 0 16 0 C16 2.64 16 5.28 16 8 C10.72 8 5.44 8 0 8 C0 5.36 0 2.72 0 0 Z"/>
<path transform="translate(384,344)" fill="#747474" d="M0 0 C5.28 0 10.56 0 16 0 C16 2.64 16 5.28 16 8 C10.72 8 5.44 8 0 8 C0 5.36 0 2.72 0 0 Z"/>
<path transform="translate(456,280)" fill="#051742" d="M0 0 C5.28 0 10.56 0 16 0 C16 2.64 16 5.28 16 8 C10.72 8 5.44 8 0 8 C0 5.36 0 2.72 0 0 Z"/>
<path transform="translate(472,272)" fill="#6F5F00" d="M0 0 C2.64 0 5.28 0 8 0 C8 5.28 8 10.56 8 16 C5.36 16 2.72 16 0 16 C0 10.72 0 5.44 0 0 Z"/>
<path transform="translate(120,264)" fill="#BFBFBF" d="M0 0 C2.64 0 5.28 0 8 0 C8 5.28 8 10.56 8 16 C5.36 16 2.72 16 0 16 C0 10.72 0 5.44 0 0 Z"/>
<path transform="translate(264,256)" fill="#D4D4D4" d="M0 0 C2.64 0 5.28 0 8 0 C8 5.28 8 10.56 8 16 C5.36 16 2.72 16 0 16 C0 10.72 0 5.44 0 0 Z"/>
<path transform="translate(464,248)" fill="#747474" d="M0 0 C2.64 0 5.28 0 8 0 C8 5.28 8 10.56 8 16 C5.36 16 2.72 16 0 16 C0 10.72 0 5.44 0 0 Z"/>
<path transform="translate(448,256)" fill="#090909" d="M0 0 C2.64 0 5.28 0 8 0 C8 5.28 8 10.56 8 16 C5.36 16 2.72 16 0 16 C0 10.72 0 5.44 0 0 Z"/>
<path transform="translate(472,248)" fill="#616161" d="M0 0 C2.64 0 5.28 0 8 0 C8 5.28 8 10.56 8 16 C5.36 16 2.72 16 0 16 C0 10.72 0 5.44 0 0 Z"/>
<path transform="translate(424,240)" fill="#747474" d="M0 0 C2.64 0 5.28 0 8 0 C8 5.28 8 10.56 8 16 C5.36 16 2.72 16 0 16 C0 10.72 0 5.44 0 0 Z"/>
<path transform="translate(408,232)" fill="#696969" d="M0 0 C2.64 0 5.28 0 8 0 C8 5.28 8 10.56 8 16 C5.36 16 2.72 16 0 16 C0 10.72 0 5.44 0 0 Z"/>
<path transform="translate(392,240)" fill="#747474" d="M0 0 C2.64 0 5.28 0 8 0 C8 5.28 8 10.56 8 16 C5.36 16 2.72 16 0 16 C0 10.72 0 5.44 0 0 Z"/>
<path transform="translate(472,232)" fill="#090909" d="M0 0 C2.64 0 5.28 0 8 0 C8 5.28 8 10.56 8 16 C5.36 16 2.72 16 0 16 C0 10.72 0 5.44 0 0 Z"/>
<path transform="translate(440,232)" fill="#7F7F7F" d="M0 0 C5.28 0 10.56 0 16 0 C16 2.64 16 5.28 16 8 C10.72 8 5.44 8 0 8 C0 5.36 0 2.72 0 0 Z"/>
<path transform="translate(376,216)" fill="#7F7F7F" d="M0 0 C5.28 0 10.56 0 16 0 C16 2.64 16 5.28 16 8 C10.72 8 5.44 8 0 8 C0 5.36 0 2.72 0 0 Z"/>
<path transform="translate(112,216)" fill="#D7D7D7" d="M0 0 C2.64 0 5.28 0 8 0 C8 5.28 8 10.56 8 16 C5.36 16 2.72 16 0 16 C0 10.72 0 5.44 0 0 Z"/>
<path transform="translate(392,200)" fill="#959595" d="M0 0 C5.28 0 10.56 0 16 0 C16 2.64 16 5.28 16 8 C10.72 8 5.44 8 0 8 C0 5.36 0 2.72 0 0 Z"/>
<path transform="translate(296,200)" fill="#090909" d="M0 0 C2.64 0 5.28 0 8 0 C8 5.28 8 10.56 8 16 C5.36 16 2.72 16 0 16 C0 10.72 0 5.44 0 0 Z"/>
<path transform="translate(352,184)" fill="#7F7F7F" d="M0 0 C2.64 0 5.28 0 8 0 C8 5.28 8 10.56 8 16 C5.36 16 2.72 16 0 16 C0 10.72 0 5.44 0 0 Z"/>
<path transform="translate(352,176)" fill="#4A4A4A" d="M0 0 C5.28 0 10.56 0 16 0 C16 2.64 16 5.28 16 8 C10.72 8 5.44 8 0 8 C0 5.36 0 2.72 0 0 Z"/>
<path transform="translate(328,160)" fill="#090909" d="M0 0 C2.64 0 5.28 0 8 0 C8 5.28 8 10.56 8 16 C5.36 16 2.72 16 0 16 C0 10.72 0 5.44 0 0 Z"/>
<path transform="translate(368,104)" fill="#090909" d="M0 0 C5.28 0 10.56 0 16 0 C16 2.64 16 5.28 16 8 C10.72 8 5.44 8 0 8 C0 5.36 0 2.72 0 0 Z"/>
<path transform="translate(448,368)" fill="#C2C2C2" d="M0 0 C2.64 0 5.28 0 8 0 C8 2.64 8 5.28 8 8 C5.36 8 2.72 8 0 8 C0 5.36 0 2.72 0 0 Z"/>
<path transform="translate(432,368)" fill="#9A9999" d="M0 0 C2.64 0 5.28 0 8 0 C8 2.64 8 5.28 8 8 C5.36 8 2.72 8 0 8 C0 5.36 0 2.72 0 0 Z"/>
<path transform="translate(424,368)" fill="#090909" d="M0 0 C2.64 0 5.28 0 8 0 C8 2.64 8 5.28 8 8 C5.36 8 2.72 8 0 8 C0 5.36 0 2.72 0 0 Z"/>
<path transform="translate(392,368)" fill="#090909" d="M0 0 C2.64 0 5.28 0 8 0 C8 2.64 8 5.28 8 8 C5.36 8 2.72 8 0 8 C0 5.36 0 2.72 0 0 Z"/>
<path transform="translate(384,368)" fill="#9A9999" d="M0 0 C2.64 0 5.28 0 8 0 C8 2.64 8 5.28 8 8 C5.36 8 2.72 8 0 8 C0 5.36 0 2.72 0 0 Z"/>
<path transform="translate(368,368)" fill="#C2C2C2" d="M0 0 C2.64 0 5.28 0 8 0 C8 2.64 8 5.28 8 8 C5.36 8 2.72 8 0 8 C0 5.36 0 2.72 0 0 Z"/>
<path transform="translate(456,360)" fill="#090909" d="M0 0 C2.64 0 5.28 0 8 0 C8 2.64 8 5.28 8 8 C5.36 8 2.72 8 0 8 C0 5.36 0 2.72 0 0 Z"/>
<path transform="translate(432,360)" fill="#090909" d="M0 0 C2.64 0 5.28 0 8 0 C8 2.64 8 5.28 8 8 C5.36 8 2.72 8 0 8 C0 5.36 0 2.72 0 0 Z"/>
<path transform="translate(384,360)" fill="#090909" d="M0 0 C2.64 0 5.28 0 8 0 C8 2.64 8 5.28 8 8 C5.36 8 2.72 8 0 8 C0 5.36 0 2.72 0 0 Z"/>
<path transform="translate(360,360)" fill="#090909" d="M0 0 C2.64 0 5.28 0 8 0 C8 2.64 8 5.28 8 8 C5.36 8 2.72 8 0 8 C0 5.36 0 2.72 0 0 Z"/>
<path transform="translate(472,312)" fill="#1E4399" d="M0 0 C2.64 0 5.28 0 8 0 C8 2.64 8 5.28 8 8 C5.36 8 2.72 8 0 8 C0 5.36 0 2.72 0 0 Z"/>
<path transform="translate(408,312)" fill="#616161" d="M0 0 C2.64 0 5.28 0 8 0 C8 2.64 8 5.28 8 8 C5.36 8 2.72 8 0 8 C0 5.36 0 2.72 0 0 Z"/>
<path transform="translate(480,304)" fill="#7F7F7F" d="M0 0 C2.64 0 5.28 0 8 0 C8 2.64 8 5.28 8 8 C5.36 8 2.72 8 0 8 C0 5.36 0 2.72 0 0 Z"/>
<path transform="translate(480,296)" fill="#051742" d="M0 0 C2.64 0 5.28 0 8 0 C8 2.64 8 5.28 8 8 C5.36 8 2.72 8 0 8 C0 5.36 0 2.72 0 0 Z"/>
<path transform="translate(472,296)" fill="#1E4399" d="M0 0 C2.64 0 5.28 0 8 0 C8 2.64 8 5.28 8 8 C5.36 8 2.72 8 0 8 C0 5.36 0 2.72 0 0 Z"/>
<path transform="translate(472,288)" fill="#051742" d="M0 0 C2.64 0 5.28 0 8 0 C8 2.64 8 5.28 8 8 C5.36 8 2.72 8 0 8 C0 5.36 0 2.72 0 0 Z"/>
<path transform="translate(448,288)" fill="#767509" d="M0 0 C2.64 0 5.28 0 8 0 C8 2.64 8 5.28 8 8 C5.36 8 2.72 8 0 8 C0 5.36 0 2.72 0 0 Z"/>
<path transform="translate(416,288)" fill="#616161" d="M0 0 C2.64 0 5.28 0 8 0 C8 2.64 8 5.28 8 8 C5.36 8 2.72 8 0 8 C0 5.36 0 2.72 0 0 Z"/>
<path transform="translate(408,288)" fill="#929292" d="M0 0 C2.64 0 5.28 0 8 0 C8 2.64 8 5.28 8 8 C5.36 8 2.72 8 0 8 C0 5.36 0 2.72 0 0 Z"/>
<path transform="translate(400,288)" fill="#616161" d="M0 0 C2.64 0 5.28 0 8 0 C8 2.64 8 5.28 8 8 C5.36 8 2.72 8 0 8 C0 5.36 0 2.72 0 0 Z"/>
<path transform="translate(264,288)" fill="#DADADA" d="M0 0 C2.64 0 5.28 0 8 0 C8 2.64 8 5.28 8 8 C5.36 8 2.72 8 0 8 C0 5.36 0 2.72 0 0 Z"/>
<path transform="translate(240,288)" fill="#DFDFDF" d="M0 0 C2.64 0 5.28 0 8 0 C8 2.64 8 5.28 8 8 C5.36 8 2.72 8 0 8 C0 5.36 0 2.72 0 0 Z"/>
<path transform="translate(216,288)" fill="#CCCCCC" d="M0 0 C2.64 0 5.28 0 8 0 C8 2.64 8 5.28 8 8 C5.36 8 2.72 8 0 8 C0 5.36 0 2.72 0 0 Z"/>
<path transform="translate(128,288)" fill="#DFDFDF" d="M0 0 C2.64 0 5.28 0 8 0 C8 2.64 8 5.28 8 8 C5.36 8 2.72 8 0 8 C0 5.36 0 2.72 0 0 Z"/>
<path transform="translate(112,288)" fill="#DFDFDF" d="M0 0 C2.64 0 5.28 0 8 0 C8 2.64 8 5.28 8 8 C5.36 8 2.72 8 0 8 C0 5.36 0 2.72 0 0 Z"/>
<path transform="translate(48,288)" fill="#DFDFDF" d="M0 0 C2.64 0 5.28 0 8 0 C8 2.64 8 5.28 8 8 C5.36 8 2.72 8 0 8 C0 5.36 0 2.72 0 0 Z"/>
<path transform="translate(448,280)" fill="#8D7D07" d="M0 0 C2.64 0 5.28 0 8 0 C8 2.64 8 5.28 8 8 C5.36 8 2.72 8 0 8 C0 5.36 0 2.72 0 0 Z"/>
<path transform="translate(256,280)" fill="#D4D4D4" d="M0 0 C2.64 0 5.28 0 8 0 C8 2.64 8 5.28 8 8 C5.36 8 2.72 8 0 8 C0 5.36 0 2.72 0 0 Z"/>
<path transform="translate(240,280)" fill="#D4D4D4" d="M0 0 C2.64 0 5.28 0 8 0 C8 2.64 8 5.28 8 8 C5.36 8 2.72 8 0 8 C0 5.36 0 2.72 0 0 Z"/>
<path transform="translate(184,280)" fill="#CCCCCC" d="M0 0 C2.64 0 5.28 0 8 0 C8 2.64 8 5.28 8 8 C5.36 8 2.72 8 0 8 C0 5.36 0 2.72 0 0 Z"/>
<path transform="translate(64,280)" fill="#CCCCCC" d="M0 0 C2.64 0 5.28 0 8 0 C8 2.64 8 5.28 8 8 C5.36 8 2.72 8 0 8 C0 5.36 0 2.72 0 0 Z"/>
<path transform="translate(464,272)" fill="#C2B800" d="M0 0 C2.64 0 5.28 0 8 0 C8 2.64 8 5.28 8 8 C5.36 8 2.72 8 0 8 C0 5.36 0 2.72 0 0 Z"/>
<path transform="translate(448,272)" fill="#767509" d="M0 0 C2.64 0 5.28 0 8 0 C8 2.64 8 5.28 8 8 C5.36 8 2.72 8 0 8 C0 5.36 0 2.72 0 0 Z"/>
<path transform="translate(256,272)" fill="#BFBFBF" d="M0 0 C2.64 0 5.28 0 8 0 C8 2.64 8 5.28 8 8 C5.36 8 2.72 8 0 8 C0 5.36 0 2.72 0 0 Z"/>
<path transform="translate(248,272)" fill="#D4D4D4" d="M0 0 C2.64 0 5.28 0 8 0 C8 2.64 8 5.28 8 8 C5.36 8 2.72 8 0 8 C0 5.36 0 2.72 0 0 Z"/>
<path transform="translate(56,272)" fill="#CCCCCC" d="M0 0 C2.64 0 5.28 0 8 0 C8 2.64 8 5.28 8 8 C5.36 8 2.72 8 0 8 C0 5.36 0 2.72 0 0 Z"/>
<path transform="translate(248,264)" fill="#BFBFBF" d="M0 0 C2.64 0 5.28 0 8 0 C8 2.64 8 5.28 8 8 C5.36 8 2.72 8 0 8 C0 5.36 0 2.72 0 0 Z"/>
<path transform="translate(184,264)" fill="#CCCCCC" d="M0 0 C2.64 0 5.28 0 8 0 C8 2.64 8 5.28 8 8 C5.36 8 2.72 8 0 8 C0 5.36 0 2.72 0 0 Z"/>
<path transform="translate(152,264)" fill="#CCCCCC" d="M0 0 C2.64 0 5.28 0 8 0 C8 2.64 8 5.28 8 8 C5.36 8 2.72 8 0 8 C0 5.36 0 2.72 0 0 Z"/>
<path transform="translate(128,264)" fill="#CCCCCC" d="M0 0 C2.64 0 5.28 0 8 0 C8 2.64 8 5.28 8 8 C5.36 8 2.72 8 0 8 C0 5.36 0 2.72 0 0 Z"/>
<path transform="translate(120,264)" fill="#090909" d="M0 0 C2.64 0 5.28 0 8 0 C8 2.64 8 5.28 8 8 C5.36 8 2.72 8 0 8 C0 5.36 0 2.72 0 0 Z"/>
<path transform="translate(112,264)" fill="#CCCCCC" d="M0 0 C2.64 0 5.28 0 8 0 C8 2.64 8 5.28 8 8 C5.36 8 2.72 8 0 8 C0 5.36 0 2.72 0 0 Z"/>
<path transform="translate(88,264)" fill="#CCCCCC" d="M0 0 C2.64 0 5.28 0 8 0 C8 2.64 8 5.28 8 8 C5.36 8 2.72 8 0 8 C0 5.36 0 2.72 0 0 Z"/>
<path transform="translate(48,264)" fill="#CCCCCC" d="M0 0 C2.64 0 5.28 0 8 0 C8 2.64 8 5.28 8 8 C5.36 8 2.72 8 0 8 C0 5.36 0 2.72 0 0 Z"/>
<path transform="translate(432,256)" fill="#7F7F7F" d="M0 0 C2.64 0 5.28 0 8 0 C8 2.64 8 5.28 8 8 C5.36 8 2.72 8 0 8 C0 5.36 0 2.72 0 0 Z"/>
<path transform="translate(384,256)" fill="#7F7F7F" d="M0 0 C2.64 0 5.28 0 8 0 C8 2.64 8 5.28 8 8 C5.36 8 2.72 8 0 8 C0 5.36 0 2.72 0 0 Z"/>
<path transform="translate(264,256)" fill="#DFDFDF" d="M0 0 C2.64 0 5.28 0 8 0 C8 2.64 8 5.28 8 8 C5.36 8 2.72 8 0 8 C0 5.36 0 2.72 0 0 Z"/>
<path transform="translate(240,256)" fill="#DADADA" d="M0 0 C2.64 0 5.28 0 8 0 C8 2.64 8 5.28 8 8 C5.36 8 2.72 8 0 8 C0 5.36 0 2.72 0 0 Z"/>
<path transform="translate(216,256)" fill="#CCCCCC" d="M0 0 C2.64 0 5.28 0 8 0 C8 2.64 8 5.28 8 8 C5.36 8 2.72 8 0 8 C0 5.36 0 2.72 0 0 Z"/>
<path transform="translate(128,256)" fill="#DADADA" d="M0 0 C2.64 0 5.28 0 8 0 C8 2.64 8 5.28 8 8 C5.36 8 2.72 8 0 8 C0 5.36 0 2.72 0 0 Z"/>
<path transform="translate(112,256)" fill="#DADADA" d="M0 0 C2.64 0 5.28 0 8 0 C8 2.64 8 5.28 8 8 C5.36 8 2.72 8 0 8 C0 5.36 0 2.72 0 0 Z"/>
<path transform="translate(64,256)" fill="#DFDFDF" d="M0 0 C2.64 0 5.28 0 8 0 C8 2.64 8 5.28 8 8 C5.36 8 2.72 8 0 8 C0 5.36 0 2.72 0 0 Z"/>
<path transform="translate(464,248)" fill="#7F7F7F" d="M0 0 C2.64 0 5.28 0 8 0 C8 2.64 8 5.28 8 8 C5.36 8 2.72 8 0 8 C0 5.36 0 2.72 0 0 Z"/>
<path transform="translate(456,240)" fill="#7F7F7F" d="M0 0 C2.64 0 5.28 0 8 0 C8 2.64 8 5.28 8 8 C5.36 8 2.72 8 0 8 C0 5.36 0 2.72 0 0 Z"/>
<path transform="translate(440,240)" fill="#505050" d="M0 0 C2.64 0 5.28 0 8 0 C8 2.64 8 5.28 8 8 C5.36 8 2.72 8 0 8 C0 5.36 0 2.72 0 0 Z"/>
<path transform="translate(376,240)" fill="#505050" d="M0 0 C2.64 0 5.28 0 8 0 C8 2.64 8 5.28 8 8 C5.36 8 2.72 8 0 8 C0 5.36 0 2.72 0 0 Z"/>
<path transform="translate(456,232)" fill="#929292" d="M0 0 C2.64 0 5.28 0 8 0 C8 2.64 8 5.28 8 8 C5.36 8 2.72 8 0 8 C0 5.36 0 2.72 0 0 Z"/>
<path transform="translate(416,232)" fill="#7F7F7F" d="M0 0 C2.64 0 5.28 0 8 0 C8 2.64 8 5.28 8 8 C5.36 8 2.72 8 0 8 C0 5.36 0 2.72 0 0 Z"/>
<path transform="translate(408,232)" fill="#505050" d="M0 0 C2.64 0 5.28 0 8 0 C8 2.64 8 5.28 8 8 C5.36 8 2.72 8 0 8 C0 5.36 0 2.72 0 0 Z"/>
<path transform="translate(400,232)" fill="#7F7F7F" d="M0 0 C2.64 0 5.28 0 8 0 C8 2.64 8 5.28 8 8 C5.36 8 2.72 8 0 8 C0 5.36 0 2.72 0 0 Z"/>
<path transform="translate(376,232)" fill="#7F7F7F" d="M0 0 C2.64 0 5.28 0 8 0 C8 2.64 8 5.28 8 8 C5.36 8 2.72 8 0 8 C0 5.36 0 2.72 0 0 Z"/>
<path transform="translate(368,232)" fill="#505050" d="M0 0 C2.64 0 5.28 0 8 0 C8 2.64 8 5.28 8 8 C5.36 8 2.72 8 0 8 C0 5.36 0 2.72 0 0 Z"/>
<path transform="translate(360,232)" fill="#090909" d="M0 0 C2.64 0 5.28 0 8 0 C8 2.64 8 5.28 8 8 C5.36 8 2.72 8 0 8 C0 5.36 0 2.72 0 0 Z"/>
<path transform="translate(464,224)" fill="#090909" d="M0 0 C2.64 0 5.28 0 8 0 C8 2.64 8 5.28 8 8 C5.36 8 2.72 8 0 8 C0 5.36 0 2.72 0 0 Z"/>
<path transform="translate(456,224)" fill="#616161" d="M0 0 C2.64 0 5.28 0 8 0 C8 2.64 8 5.28 8 8 C5.36 8 2.72 8 0 8 C0 5.36 0 2.72 0 0 Z"/>
<path transform="translate(424,224)" fill="#7F7F7F" d="M0 0 C2.64 0 5.28 0 8 0 C8 2.64 8 5.28 8 8 C5.36 8 2.72 8 0 8 C0 5.36 0 2.72 0 0 Z"/>
<path transform="translate(392,224)" fill="#7F7F7F" d="M0 0 C2.64 0 5.28 0 8 0 C8 2.64 8 5.28 8 8 C5.36 8 2.72 8 0 8 C0 5.36 0 2.72 0 0 Z"/>
<path transform="translate(360,224)" fill="#616161" d="M0 0 C2.64 0 5.28 0 8 0 C8 2.64 8 5.28 8 8 C5.36 8 2.72 8 0 8 C0 5.36 0 2.72 0 0 Z"/>
<path transform="translate(352,224)" fill="#090909" d="M0 0 C2.64 0 5.28 0 8 0 C8 2.64 8 5.28 8 8 C5.36 8 2.72 8 0 8 C0 5.36 0 2.72 0 0 Z"/>
<path transform="translate(312,224)" fill="#090909" d="M0 0 C2.64 0 5.28 0 8 0 C8 2.64 8 5.28 8 8 C5.36 8 2.72 8 0 8 C0 5.36 0 2.72 0 0 Z"/>
<path transform="translate(248,224)" fill="#DF1D1D" d="M0 0 C2.64 0 5.28 0 8 0 C8 2.64 8 5.28 8 8 C5.36 8 2.72 8 0 8 C0 5.36 0 2.72 0 0 Z"/>
<path transform="translate(168,224)" fill="#DFDFDF" d="M0 0 C2.64 0 5.28 0 8 0 C8 2.64 8 5.28 8 8 C5.36 8 2.72 8 0 8 C0 5.36 0 2.72 0 0 Z"/>
<path transform="translate(144,224)" fill="#DFDFDF" d="M0 0 C2.64 0 5.28 0 8 0 C8 2.64 8 5.28 8 8 C5.36 8 2.72 8 0 8 C0 5.36 0 2.72 0 0 Z"/>
<path transform="translate(96,224)" fill="#DADADA" d="M0 0 C2.64 0 5.28 0 8 0 C8 2.64 8 5.28 8 8 C5.36 8 2.72 8 0 8 C0 5.36 0 2.72 0 0 Z"/>
<path transform="translate(456,216)" fill="#090909" d="M0 0 C2.64 0 5.28 0 8 0 C8 2.64 8 5.28 8 8 C5.36 8 2.72 8 0 8 C0 5.36 0 2.72 0 0 Z"/>
<path transform="translate(424,216)" fill="#252525" d="M0 0 C2.64 0 5.28 0 8 0 C8 2.64 8 5.28 8 8 C5.36 8 2.72 8 0 8 C0 5.36 0 2.72 0 0 Z"/>
<path transform="translate(416,216)" fill="#616161" d="M0 0 C2.64 0 5.28 0 8 0 C8 2.64 8 5.28 8 8 C5.36 8 2.72 8 0 8 C0 5.36 0 2.72 0 0 Z"/>
<path transform="translate(400,216)" fill="#616161" d="M0 0 C2.64 0 5.28 0 8 0 C8 2.64 8 5.28 8 8 C5.36 8 2.72 8 0 8 C0 5.36 0 2.72 0 0 Z"/>
<path transform="translate(392,216)" fill="#252525" d="M0 0 C2.64 0 5.28 0 8 0 C8 2.64 8 5.28 8 8 C5.36 8 2.72 8 0 8 C0 5.36 0 2.72 0 0 Z"/>
<path transform="translate(352,216)" fill="#616161" d="M0 0 C2.64 0 5.28 0 8 0 C8 2.64 8 5.28 8 8 C5.36 8 2.72 8 0 8 C0 5.36 0 2.72 0 0 Z"/>
<path transform="translate(344,216)" fill="#090909" d="M0 0 C2.64 0 5.28 0 8 0 C8 2.64 8 5.28 8 8 C5.36 8 2.72 8 0 8 C0 5.36 0 2.72 0 0 Z"/>
<path transform="translate(312,216)" fill="#232323" d="M0 0 C2.64 0 5.28 0 8 0 C8 2.64 8 5.28 8 8 C5.36 8 2.72 8 0 8 C0 5.36 0 2.72 0 0 Z"/>
<path transform="translate(304,216)" fill="#090909" d="M0 0 C2.64 0 5.28 0 8 0 C8 2.64 8 5.28 8 8 C5.36 8 2.72 8 0 8 C0 5.36 0 2.72 0 0 Z"/>
<path transform="translate(128,216)" fill="#CCCCCC" d="M0 0 C2.64 0 5.28 0 8 0 C8 2.64 8 5.28 8 8 C5.36 8 2.72 8 0 8 C0 5.36 0 2.72 0 0 Z"/>
<path transform="translate(80,216)" fill="#CCCCCC" d="M0 0 C2.64 0 5.28 0 8 0 C8 2.64 8 5.28 8 8 C5.36 8 2.72 8 0 8 C0 5.36 0 2.72 0 0 Z"/>
<path transform="translate(448,208)" fill="#090909" d="M0 0 C2.64 0 5.28 0 8 0 C8 2.64 8 5.28 8 8 C5.36 8 2.72 8 0 8 C0 5.36 0 2.72 0 0 Z"/>
<path transform="translate(440,208)" fill="#616161" d="M0 0 C2.64 0 5.28 0 8 0 C8 2.64 8 5.28 8 8 C5.36 8 2.72 8 0 8 C0 5.36 0 2.72 0 0 Z"/>
<path transform="translate(432,208)" fill="#747474" d="M0 0 C2.64 0 5.28 0 8 0 C8 2.64 8 5.28 8 8 C5.36 8 2.72 8 0 8 C0 5.36 0 2.72 0 0 Z"/>
<path transform="translate(384,208)" fill="#747474" d="M0 0 C2.64 0 5.28 0 8 0 C8 2.64 8 5.28 8 8 C5.36 8 2.72 8 0 8 C0 5.36 0 2.72 0 0 Z"/>
<path transform="translate(376,208)" fill="#616161" d="M0 0 C2.64 0 5.28 0 8 0 C8 2.64 8 5.28 8 8 C5.36 8 2.72 8 0 8 C0 5.36 0 2.72 0 0 Z"/>
<path transform="translate(328,208)" fill="#232323" d="M0 0 C2.64 0 5.28 0 8 0 C8 2.64 8 5.28 8 8 C5.36 8 2.72 8 0 8 C0 5.36 0 2.72 0 0 Z"/>
<path transform="translate(320,208)" fill="#403F3F" d="M0 0 C2.64 0 5.28 0 8 0 C8 2.64 8 5.28 8 8 C5.36 8 2.72 8 0 8 C0 5.36 0 2.72 0 0 Z"/>
<path transform="translate(240,208)" fill="#BF1919" d="M0 0 C2.64 0 5.28 0 8 0 C8 2.64 8 5.28 8 8 C5.36 8 2.72 8 0 8 C0 5.36 0 2.72 0 0 Z"/>
<path transform="translate(168,208)" fill="#BFBFBF" d="M0 0 C2.64 0 5.28 0 8 0 C8 2.64 8 5.28 8 8 C5.36 8 2.72 8 0 8 C0 5.36 0 2.72 0 0 Z"/>
<path transform="translate(144,208)" fill="#DFDFDF" d="M0 0 C2.64 0 5.28 0 8 0 C8 2.64 8 5.28 8 8 C5.36 8 2.72 8 0 8 C0 5.36 0 2.72 0 0 Z"/>
<path transform="translate(440,200)" fill="#090909" d="M0 0 C2.64 0 5.28 0 8 0 C8 2.64 8 5.28 8 8 C5.36 8 2.72 8 0 8 C0 5.36 0 2.72 0 0 Z"/>
<path transform="translate(432,200)" fill="#2D2D2D" d="M0 0 C2.64 0 5.28 0 8 0 C8 2.64 8 5.28 8 8 C5.36 8 2.72 8 0 8 C0 5.36 0 2.72 0 0 Z"/>
<path transform="translate(392,200)" fill="#747474" d="M0 0 C2.64 0 5.28 0 8 0 C8 2.64 8 5.28 8 8 C5.36 8 2.72 8 0 8 C0 5.36 0 2.72 0 0 Z"/>
<path transform="translate(384,200)" fill="#2D2D2D" d="M0 0 C2.64 0 5.28 0 8 0 C8 2.64 8 5.28 8 8 C5.36 8 2.72 8 0 8 C0 5.36 0 2.72 0 0 Z"/>
<path transform="translate(376,200)" fill="#090909" d="M0 0 C2.64 0 5.28 0 8 0 C8 2.64 8 5.28 8 8 C5.36 8 2.72 8 0 8 C0 5.36 0 2.72 0 0 Z"/>
<path transform="translate(368,200)" fill="#616161" d="M0 0 C2.64 0 5.28 0 8 0 C8 2.64 8 5.28 8 8 C5.36 8 2.72 8 0 8 C0 5.36 0 2.72 0 0 Z"/>
<path transform="translate(360,200)" fill="#7F7F7F" d="M0 0 C2.64 0 5.28 0 8 0 C8 2.64 8 5.28 8 8 C5.36 8 2.72 8 0 8 C0 5.36 0 2.72 0 0 Z"/>
<path transform="translate(320,200)" fill="#232323" d="M0 0 C2.64 0 5.28 0 8 0 C8 2.64 8 5.28 8 8 C5.36 8 2.72 8 0 8 C0 5.36 0 2.72 0 0 Z"/>
<path transform="translate(312,200)" fill="#403F3F" d="M0 0 C2.64 0 5.28 0 8 0 C8 2.64 8 5.28 8 8 C5.36 8 2.72 8 0 8 C0 5.36 0 2.72 0 0 Z"/>
<path transform="translate(128,200)" fill="#CCCCCC" d="M0 0 C2.64 0 5.28 0 8 0 C8 2.64 8 5.28 8 8 C5.36 8 2.72 8 0 8 C0 5.36 0 2.72 0 0 Z"/>
<path transform="translate(104,200)" fill="#090909" d="M0 0 C2.64 0 5.28 0 8 0 C8 2.64 8 5.28 8 8 C5.36 8 2.72 8 0 8 C0 5.36 0 2.72 0 0 Z"/>
<path transform="translate(432,192)" fill="#696969" d="M0 0 C2.64 0 5.28 0 8 0 C8 2.64 8 5.28 8 8 C5.36 8 2.72 8 0 8 C0 5.36 0 2.72 0 0 Z"/>
<path transform="translate(416,192)" fill="#2D2D2D" d="M0 0 C2.64 0 5.28 0 8 0 C8 2.64 8 5.28 8 8 C5.36 8 2.72 8 0 8 C0 5.36 0 2.72 0 0 Z"/>
<path transform="translate(408,192)" fill="#747474" d="M0 0 C2.64 0 5.28 0 8 0 C8 2.64 8 5.28 8 8 C5.36 8 2.72 8 0 8 C0 5.36 0 2.72 0 0 Z"/>
<path transform="translate(400,192)" fill="#2D2D2D" d="M0 0 C2.64 0 5.28 0 8 0 C8 2.64 8 5.28 8 8 C5.36 8 2.72 8 0 8 C0 5.36 0 2.72 0 0 Z"/>
<path transform="translate(384,192)" fill="#696969" d="M0 0 C2.64 0 5.28 0 8 0 C8 2.64 8 5.28 8 8 C5.36 8 2.72 8 0 8 C0 5.36 0 2.72 0 0 Z"/>
<path transform="translate(320,192)" fill="#4D4D4D" d="M0 0 C2.64 0 5.28 0 8 0 C8 2.64 8 5.28 8 8 C5.36 8 2.72 8 0 8 C0 5.36 0 2.72 0 0 Z"/>
<path transform="translate(304,192)" fill="#090909" d="M0 0 C2.64 0 5.28 0 8 0 C8 2.64 8 5.28 8 8 C5.36 8 2.72 8 0 8 C0 5.36 0 2.72 0 0 Z"/>
<path transform="translate(248,192)" fill="#DF1D1D" d="M0 0 C2.64 0 5.28 0 8 0 C8 2.64 8 5.28 8 8 C5.36 8 2.72 8 0 8 C0 5.36 0 2.72 0 0 Z"/>
<path transform="translate(176,192)" fill="#DFDFDF" d="M0 0 C2.64 0 5.28 0 8 0 C8 2.64 8 5.28 8 8 C5.36 8 2.72 8 0 8 C0 5.36 0 2.72 0 0 Z"/>
<path transform="translate(160,192)" fill="#DFDFDF" d="M0 0 C2.64 0 5.28 0 8 0 C8 2.64 8 5.28 8 8 C5.36 8 2.72 8 0 8 C0 5.36 0 2.72 0 0 Z"/>
<path transform="translate(144,192)" fill="#DFDFDF" d="M0 0 C2.64 0 5.28 0 8 0 C8 2.64 8 5.28 8 8 C5.36 8 2.72 8 0 8 C0 5.36 0 2.72 0 0 Z"/>
<path transform="translate(96,192)" fill="#DADADA" d="M0 0 C2.64 0 5.28 0 8 0 C8 2.64 8 5.28 8 8 C5.36 8 2.72 8 0 8 C0 5.36 0 2.72 0 0 Z"/>
<path transform="translate(408,184)" fill="#2D2D2D" d="M0 0 C2.64 0 5.28 0 8 0 C8 2.64 8 5.28 8 8 C5.36 8 2.72 8 0 8 C0 5.36 0 2.72 0 0 Z"/>
<path transform="translate(352,184)" fill="#747474" d="M0 0 C2.64 0 5.28 0 8 0 C8 2.64 8 5.28 8 8 C5.36 8 2.72 8 0 8 C0 5.36 0 2.72 0 0 Z"/>
<path transform="translate(336,184)" fill="#232323" d="M0 0 C2.64 0 5.28 0 8 0 C8 2.64 8 5.28 8 8 C5.36 8 2.72 8 0 8 C0 5.36 0 2.72 0 0 Z"/>
<path transform="translate(328,184)" fill="#740000" d="M0 0 C2.64 0 5.28 0 8 0 C8 2.64 8 5.28 8 8 C5.36 8 2.72 8 0 8 C0 5.36 0 2.72 0 0 Z"/>
<path transform="translate(312,184)" fill="#090909" d="M0 0 C2.64 0 5.28 0 8 0 C8 2.64 8 5.28 8 8 C5.36 8 2.72 8 0 8 C0 5.36 0 2.72 0 0 Z"/>
<path transform="translate(432,176)" fill="#505050" d="M0 0 C2.64 0 5.28 0 8 0 C8 2.64 8 5.28 8 8 C5.36 8 2.72 8 0 8 C0 5.36 0 2.72 0 0 Z"/>
<path transform="translate(424,176)" fill="#3F9C66" d="M0 0 C2.64 0 5.28 0 8 0 C8 2.64 8 5.28 8 8 C5.36 8 2.72 8 0 8 C0 5.36 0 2.72 0 0 Z"/>
<path transform="translate(416,176)" fill="#0E9141" d="M0 0 C2.64 0 5.28 0 8 0 C8 2.64 8 5.28 8 8 C5.36 8 2.72 8 0 8 C0 5.36 0 2.72 0 0 Z"/>
<path transform="translate(400,176)" fill="#0E9141" d="M0 0 C2.64 0 5.28 0 8 0 C8 2.64 8 5.28 8 8 C5.36 8 2.72 8 0 8 C0 5.36 0 2.72 0 0 Z"/>
<path transform="translate(392,176)" fill="#3F9C66" d="M0 0 C2.64 0 5.28 0 8 0 C8 2.64 8 5.28 8 8 C5.36 8 2.72 8 0 8 C0 5.36 0 2.72 0 0 Z"/>
<path transform="translate(384,176)" fill="#505050" d="M0 0 C2.64 0 5.28 0 8 0 C8 2.64 8 5.28 8 8 C5.36 8 2.72 8 0 8 C0 5.36 0 2.72 0 0 Z"/>
<path transform="translate(344,176)" fill="#232323" d="M0 0 C2.64 0 5.28 0 8 0 C8 2.64 8 5.28 8 8 C5.36 8 2.72 8 0 8 C0 5.36 0 2.72 0 0 Z"/>
<path transform="translate(336,176)" fill="#740000" d="M0 0 C2.64 0 5.28 0 8 0 C8 2.64 8 5.28 8 8 C5.36 8 2.72 8 0 8 C0 5.36 0 2.72 0 0 Z"/>
<path transform="translate(320,176)" fill="#090909" d="M0 0 C2.64 0 5.28 0 8 0 C8 2.64 8 5.28 8 8 C5.36 8 2.72 8 0 8 C0 5.36 0 2.72 0 0 Z"/>
<path transform="translate(440,168)" fill="#090909" d="M0 0 C2.64 0 5.28 0 8 0 C8 2.64 8 5.28 8 8 C5.36 8 2.72 8 0 8 C0 5.36 0 2.72 0 0 Z"/>
<path transform="translate(432,168)" fill="#2D2D2D" d="M0 0 C2.64 0 5.28 0 8 0 C8 2.64 8 5.28 8 8 C5.36 8 2.72 8 0 8 C0 5.36 0 2.72 0 0 Z"/>
<path transform="translate(424,168)" fill="#505050" d="M0 0 C2.64 0 5.28 0 8 0 C8 2.64 8 5.28 8 8 C5.36 8 2.72 8 0 8 C0 5.36 0 2.72 0 0 Z"/>
<path transform="translate(400,168)" fill="#696969" d="M0 0 C2.64 0 5.28 0 8 0 C8 2.64 8 5.28 8 8 C5.36 8 2.72 8 0 8 C0 5.36 0 2.72 0 0 Z"/>
<path transform="translate(384,168)" fill="#2D2D2D" d="M0 0 C2.64 0 5.28 0 8 0 C8 2.64 8 5.28 8 8 C5.36 8 2.72 8 0 8 C0 5.36 0 2.72 0 0 Z"/>
<path transform="translate(360,168)" fill="#797718" d="M0 0 C2.64 0 5.28 0 8 0 C8 2.64 8 5.28 8 8 C5.36 8 2.72 8 0 8 C0 5.36 0 2.72 0 0 Z"/>
<path transform="translate(352,168)" fill="#232323" d="M0 0 C2.64 0 5.28 0 8 0 C8 2.64 8 5.28 8 8 C5.36 8 2.72 8 0 8 C0 5.36 0 2.72 0 0 Z"/>
<path transform="translate(344,168)" fill="#740000" d="M0 0 C2.64 0 5.28 0 8 0 C8 2.64 8 5.28 8 8 C5.36 8 2.72 8 0 8 C0 5.36 0 2.72 0 0 Z"/>
<path transform="translate(336,168)" fill="#232323" d="M0 0 C2.64 0 5.28 0 8 0 C8 2.64 8 5.28 8 8 C5.36 8 2.72 8 0 8 C0 5.36 0 2.72 0 0 Z"/>
<path transform="translate(432,160)" fill="#090909" d="M0 0 C2.64 0 5.28 0 8 0 C8 2.64 8 5.28 8 8 C5.36 8 2.72 8 0 8 C0 5.36 0 2.72 0 0 Z"/>
<path transform="translate(424,160)" fill="#2D2D2D" d="M0 0 C2.64 0 5.28 0 8 0 C8 2.64 8 5.28 8 8 C5.36 8 2.72 8 0 8 C0 5.36 0 2.72 0 0 Z"/>
<path transform="translate(392,160)" fill="#2D2D2D" d="M0 0 C2.64 0 5.28 0 8 0 C8 2.64 8 5.28 8 8 C5.36 8 2.72 8 0 8 C0 5.36 0 2.72 0 0 Z"/>
<path transform="translate(368,160)" fill="#8D7D07" d="M0 0 C2.64 0 5.28 0 8 0 C8 2.64 8 5.28 8 8 C5.36 8 2.72 8 0 8 C0 5.36 0 2.72 0 0 Z"/>
<path transform="translate(360,160)" fill="#C2B800" d="M0 0 C2.64 0 5.28 0 8 0 C8 2.64 8 5.28 8 8 C5.36 8 2.72 8 0 8 C0 5.36 0 2.72 0 0 Z"/>
<path transform="translate(344,160)" fill="#232323" d="M0 0 C2.64 0 5.28 0 8 0 C8 2.64 8 5.28 8 8 C5.36 8 2.72 8 0 8 C0 5.36 0 2.72 0 0 Z"/>
<path transform="translate(336,160)" fill="#6F5F00" d="M0 0 C2.64 0 5.28 0 8 0 C8 2.64 8 5.28 8 8 C5.36 8 2.72 8 0 8 C0 5.36 0 2.72 0 0 Z"/>
<path transform="translate(424,152)" fill="#090909" d="M0 0 C2.64 0 5.28 0 8 0 C8 2.64 8 5.28 8 8 C5.36 8 2.72 8 0 8 C0 5.36 0 2.72 0 0 Z"/>
<path transform="translate(392,152)" fill="#090909" d="M0 0 C2.64 0 5.28 0 8 0 C8 2.64 8 5.28 8 8 C5.36 8 2.72 8 0 8 C0 5.36 0 2.72 0 0 Z"/>
<path transform="translate(368,152)" fill="#232323" d="M0 0 C2.64 0 5.28 0 8 0 C8 2.64 8 5.28 8 8 C5.36 8 2.72 8 0 8 C0 5.36 0 2.72 0 0 Z"/>
<path transform="translate(360,152)" fill="#740000" d="M0 0 C2.64 0 5.28 0 8 0 C8 2.64 8 5.28 8 8 C5.36 8 2.72 8 0 8 C0 5.36 0 2.72 0 0 Z"/>
<path transform="translate(336,152)" fill="#090909" d="M0 0 C2.64 0 5.28 0 8 0 C8 2.64 8 5.28 8 8 C5.36 8 2.72 8 0 8 C0 5.36 0 2.72 0 0 Z"/>
<path transform="translate(384,144)" fill="#090909" d="M0 0 C2.64 0 5.28 0 8 0 C8 2.64 8 5.28 8 8 C5.36 8 2.72 8 0 8 C0 5.36 0 2.72 0 0 Z"/>
<path transform="translate(376,144)" fill="#232323" d="M0 0 C2.64 0 5.28 0 8 0 C8 2.64 8 5.28 8 8 C5.36 8 2.72 8 0 8 C0 5.36 0 2.72 0 0 Z"/>
<path transform="translate(368,144)" fill="#740000" d="M0 0 C2.64 0 5.28 0 8 0 C8 2.64 8 5.28 8 8 C5.36 8 2.72 8 0 8 C0 5.36 0 2.72 0 0 Z"/>
<path transform="translate(360,144)" fill="#232323" d="M0 0 C2.64 0 5.28 0 8 0 C8 2.64 8 5.28 8 8 C5.36 8 2.72 8 0 8 C0 5.36 0 2.72 0 0 Z"/>
<path transform="translate(352,144)" fill="#767509" d="M0 0 C2.64 0 5.28 0 8 0 C8 2.64 8 5.28 8 8 C5.36 8 2.72 8 0 8 C0 5.36 0 2.72 0 0 Z"/>
<path transform="translate(344,144)" fill="#090909" d="M0 0 C2.64 0 5.28 0 8 0 C8 2.64 8 5.28 8 8 C5.36 8 2.72 8 0 8 C0 5.36 0 2.72 0 0 Z"/>
<path transform="translate(376,136)" fill="#4D4D4D" d="M0 0 C2.64 0 5.28 0 8 0 C8 2.64 8 5.28 8 8 C5.36 8 2.72 8 0 8 C0 5.36 0 2.72 0 0 Z"/>
<path transform="translate(368,136)" fill="#232323" d="M0 0 C2.64 0 5.28 0 8 0 C8 2.64 8 5.28 8 8 C5.36 8 2.72 8 0 8 C0 5.36 0 2.72 0 0 Z"/>
<path transform="translate(376,128)" fill="#403F3F" d="M0 0 C2.64 0 5.28 0 8 0 C8 2.64 8 5.28 8 8 C5.36 8 2.72 8 0 8 C0 5.36 0 2.72 0 0 Z"/>
<path transform="translate(368,120)" fill="#403F3F" d="M0 0 C2.64 0 5.28 0 8 0 C8 2.64 8 5.28 8 8 C5.36 8 2.72 8 0 8 C0 5.36 0 2.72 0 0 Z"/>
<path transform="translate(352,120)" fill="#090909" d="M0 0 C2.64 0 5.28 0 8 0 C8 2.64 8 5.28 8 8 C5.36 8 2.72 8 0 8 C0 5.36 0 2.72 0 0 Z"/>
<path transform="translate(384,112)" fill="#090909" d="M0 0 C2.64 0 5.28 0 8 0 C8 2.64 8 5.28 8 8 C5.36 8 2.72 8 0 8 C0 5.36 0 2.72 0 0 Z"/>
<path transform="translate(360,112)" fill="#090909" d="M0 0 C2.64 0 5.28 0 8 0 C8 2.64 8 5.28 8 8 C5.36 8 2.72 8 0 8 C0 5.36 0 2.72 0 0 Z"/>
</svg>